CSS Mono.ufo
<glyph name="exclam" format="1">
  <advance width="800"/>
  <unicode hex="0021"/>
  <outline>
    <contour>
      <point x="464" y="52" type="curve" smooth="yes"/>
      <point x="464" y="17"/>
      <point x="435" y="-12"/>
      <point x="400" y="-12" type="curve" smooth="yes"/>
      <point x="365" y="-12"/>
      <point x="336" y="17"/>
      <point x="336" y="52" type="curve" smooth="yes"/>
      <point x="336" y="87"/>
      <point x="365" y="116"/>
      <point x="400" y="116" type="curve" smooth="yes"/>
      <point x="435" y="116"/>
      <point x="464" y="87"/>
    </contour>
    <contour>
      <point x="464" y="608" type="curve"/>
      <point x="464" y="557"/>
      <point x="418" y="316"/>
      <point x="419" y="223" type="curve"/>
      <point x="382" y="223" type="line"/>
      <point x="382" y="316"/>
      <point x="336" y="557"/>
      <point x="336" y="608" type="curve" smooth="yes"/>
      <point x="336" y="643"/>
      <point x="365" y="672"/>
      <point x="400" y="672" type="curve" smooth="yes"/>
      <point x="435" y="672"/>
      <point x="464" y="643"/>
    </contour>
  </outline>
</glyph>
<glyph name="numbersign" format="1">
  <advance width="800"/>
  <unicode hex="0023"/>
  <outline>
    <contour>
      <point x="150" y="0" type="line" smooth="yes"/>
      <point x="236" y="0" type="line" smooth="yes"/>
      <point x="415" y="660" type="line" smooth="yes"/>
      <point x="329" y="660" type="line" smooth="yes"/>
    </contour>
    <contour>
      <point x="386" y="0" type="line" smooth="yes"/>
      <point x="471" y="0" type="line" smooth="yes"/>
      <point x="650" y="660" type="line" smooth="yes"/>
      <point x="565" y="660" type="line" smooth="yes"/>
    </contour>
    <contour>
      <point x="662" y="201" type="line" smooth="yes"/>
      <point x="662" y="238" type="line" smooth="yes"/>
      <point x="76" y="238" type="line" smooth="yes"/>
      <point x="76" y="201" type="line" smooth="yes"/>
    </contour>
    <contour>
      <point x="723" y="422" type="line" smooth="yes"/>
      <point x="723" y="459" type="line" smooth="yes"/>
      <point x="137" y="459" type="line" smooth="yes"/>
      <point x="137" y="422" type="line" smooth="yes"/>
    </contour>
  </outline>
</glyph>
<glyph name="dollar" format="1">
  <advance width="800"/>
  <unicode hex="0024"/>
  <outline>
    <contour>
      <point x="113" y="402" type="curve" smooth="yes"/>
      <point x="113" y="302"/>
      <point x="265" y="281"/>
      <point x="403" y="246" type="curve" smooth="yes"/>
      <point x="513" y="218"/>
      <point x="611" y="200"/>
      <point x="611" y="126" type="curve" smooth="yes"/>
      <point x="611" y="59"/>
      <point x="532" y="20"/>
      <point x="438" y="20" type="curve" smooth="yes"/>
      <point x="326" y="20"/>
      <point x="195" y="79"/>
      <point x="132" y="213" type="curve"/>
      <point x="95" y="213" type="line" smooth="yes"/>
      <point x="95" y="2" type="line" smooth="yes"/>
      <point x="128" y="2" type="line"/>
      <point x="161" y="60" type="line"/>
      <point x="265" y="8"/>
      <point x="328" y="-12"/>
      <point x="408" y="-12" type="curve" smooth="yes"/>
      <point x="564" y="-12"/>
      <point x="702" y="38"/>
      <point x="702" y="164" type="curve" smooth="yes"/>
      <point x="702" y="267"/>
      <point x="571" y="286"/>
      <point x="440" y="316" type="curve" smooth="yes"/>
      <point x="319" y="343"/>
      <point x="207" y="360"/>
      <point x="207" y="432" type="curve" smooth="yes"/>
      <point x="207" y="518"/>
      <point x="293" y="544"/>
      <point x="378" y="544" type="curve" smooth="yes"/>
      <point x="486" y="544"/>
      <point x="609" y="483"/>
      <point x="653" y="358" type="curve"/>
      <point x="682" y="358" type="line" smooth="yes"/>
      <point x="682" y="557" type="line" smooth="yes"/>
      <point x="656" y="557" type="line"/>
      <point x="613" y="509" type="line"/>
      <point x="537" y="558"/>
      <point x="476" y="580"/>
      <point x="392" y="580" type="curve" smooth="yes"/>
      <point x="253" y="580"/>
      <point x="113" y="530"/>
    </contour>
    <contour>
      <point x="372" y="-170" type="line" smooth="yes"/>
      <point x="425" y="-170" type="line" smooth="yes"/>
      <point x="425" y="738" type="line" smooth="yes"/>
      <point x="372" y="738" type="line" smooth="yes"/>
    </contour>
  </outline>
</glyph>
<glyph name="percent" format="1">
  <advance width="800"/>
  <unicode hex="0025"/>
  <outline>
    <contour>
      <point x="653" y="117" type="curve" smooth="yes"/>
      <point x="653" y="66"/>
      <point x="617" y="15"/>
      <point x="572" y="15" type="curve" smooth="yes"/>
      <point x="508" y="15"/>
      <point x="467" y="62"/>
      <point x="467" y="133" type="curve" smooth="yes"/>
      <point x="467" y="184"/>
      <point x="503" y="235"/>
      <point x="548" y="235" type="curve" smooth="yes"/>
      <point x="612" y="235"/>
      <point x="653" y="188"/>
    </contour>
    <contour>
      <point x="400" y="116" type="curve" smooth="yes"/>
      <point x="400" y="46"/>
      <point x="471" y="-12"/>
      <point x="541" y="-12" type="curve" smooth="yes"/>
      <point x="636" y="-12"/>
      <point x="720" y="39"/>
      <point x="720" y="134" type="curve" smooth="yes"/>
      <point x="720" y="204"/>
      <point x="649" y="262"/>
      <point x="579" y="262" type="curve" smooth="yes"/>
      <point x="484" y="262"/>
      <point x="400" y="211"/>
    </contour>
    <contour>
      <point x="333" y="527" type="curve" smooth="yes"/>
      <point x="333" y="476"/>
      <point x="297" y="425"/>
      <point x="252" y="425" type="curve" smooth="yes"/>
      <point x="188" y="425"/>
      <point x="147" y="472"/>
      <point x="147" y="543" type="curve" smooth="yes"/>
      <point x="147" y="594"/>
      <point x="183" y="645"/>
      <point x="228" y="645" type="curve" smooth="yes"/>
      <point x="292" y="645"/>
      <point x="333" y="598"/>
    </contour>
    <contour>
      <point x="80" y="526" type="curve" smooth="yes"/>
      <point x="80" y="456"/>
      <point x="151" y="398"/>
      <point x="221" y="398" type="curve" smooth="yes"/>
      <point x="316" y="398"/>
      <point x="400" y="449"/>
      <point x="400" y="544" type="curve" smooth="yes"/>
      <point x="400" y="614"/>
      <point x="329" y="672"/>
      <point x="259" y="672" type="curve" smooth="yes"/>
      <point x="164" y="672"/>
      <point x="80" y="621"/>
    </contour>
    <contour>
      <point x="188" y="0" type="line" smooth="yes"/>
      <point x="110" y="0" type="line" smooth="yes"/>
      <point x="612" y="660" type="line" smooth="yes"/>
      <point x="690" y="660" type="line" smooth="yes"/>
    </contour>
  </outline>
</glyph>
<glyph name="ampersand" format="1">
  <advance width="800"/>
  <unicode hex="0026"/>
  <outline>
    <contour>
      <point x="647" y="319" type="curve" smooth="yes"/>
      <point x="647" y="113"/>
      <point x="474" y="-12"/>
      <point x="317" y="-12" type="curve" smooth="yes"/>
      <point x="151" y="-12"/>
      <point x="63" y="87"/>
      <point x="63" y="189" type="curve" smooth="yes"/>
      <point x="63" y="273"/>
      <point x="124" y="360"/>
      <point x="249" y="392" type="curve"/>
      <point x="264" y="372" type="line"/>
      <point x="185" y="342"/>
      <point x="150" y="279"/>
      <point x="150" y="215" type="curve" smooth="yes"/>
      <point x="150" y="120"/>
      <point x="226" y="22"/>
      <point x="347" y="22" type="curve" smooth="yes"/>
      <point x="444" y="22"/>
      <point x="569" y="132"/>
      <point x="569" y="319" type="curve" smooth="yes"/>
      <point x="569" y="348"/>
      <point x="543" y="369"/>
      <point x="500" y="377" type="curve"/>
      <point x="500" y="395" type="line"/>
      <point x="722" y="395" type="line"/>
      <point x="722" y="377" type="line"/>
      <point x="679" y="369"/>
      <point x="647" y="348"/>
    </contour>
    <contour>
      <point x="590" y="0"/>
      <point x="577" y="23"/>
      <point x="570" y="32" type="curve" smooth="yes"/>
      <point x="423" y="219"/>
      <point x="153" y="305"/>
      <point x="153" y="488" type="curve" smooth="yes"/>
      <point x="153" y="611"/>
      <point x="266" y="672"/>
      <point x="372" y="672" type="curve" smooth="yes"/>
      <point x="462" y="672"/>
      <point x="547" y="627"/>
      <point x="547" y="537" type="curve" smooth="yes"/>
      <point x="547" y="513"/>
      <point x="530" y="486"/>
      <point x="499" y="486" type="curve" smooth="yes"/>
      <point x="465" y="486"/>
      <point x="416" y="503"/>
      <point x="416" y="524" type="curve" smooth="yes"/>
      <point x="416" y="557"/>
      <point x="442" y="570"/>
      <point x="423" y="589" type="curve" smooth="yes"/>
      <point x="398" y="615"/>
      <point x="364" y="630"/>
      <point x="337" y="630" type="curve" smooth="yes"/>
      <point x="286" y="630"/>
      <point x="242" y="590"/>
      <point x="242" y="521" type="curve" smooth="yes"/>
      <point x="242" y="349"/>
      <point x="453" y="302"/>
      <point x="646" y="77" type="curve" smooth="yes"/>
      <point x="668" y="52"/>
      <point x="694" y="26"/>
      <point x="737" y="18" type="curve"/>
      <point x="737" y="0" type="line" smooth="yes"/>
      <point x="621" y="0" type="line"/>
    </contour>
  </outline>
</glyph>
<glyph name="quotesingle" format="1">
  <advance width="800"/>
  <unicode hex="0027"/>
  <outline>
    <contour>
      <point x="452" y="641" type="line"/>
      <point x="452" y="669"/>
      <point x="429" y="692"/>
      <point x="400" y="692" type="curve" smooth="yes"/>
      <point x="372" y="692"/>
      <point x="344" y="669"/>
      <point x="349" y="641" type="curve" smooth="yes"/>
      <point x="382" y="452" type="line" smooth="yes"/>
      <point x="418" y="452" type="line" smooth="yes"/>
    </contour>
  </outline>
</glyph>
<glyph name="hyphen" format="1">
  <advance width="800"/>
  <unicode hex="002D"/>
  <outline>
    <contour>
      <point x="650" y="247" type="line" smooth="yes"/>
      <point x="150" y="247" type="line" smooth="yes"/>
      <point x="150" y="319" type="line" smooth="yes"/>
      <point x="650" y="319" type="line" smooth="yes"/>
    </contour>
  </outline>
</glyph>
<glyph name="period" format="1">
  <advance width="800"/>
  <unicode hex="002E"/>
  <outline>
    <contour>
      <point x="475" y="64" type="curve" smooth="yes"/>
      <point x="475" y="23"/>
      <point x="441" y="-11"/>
      <point x="400" y="-11" type="curve" smooth="yes"/>
      <point x="359" y="-11"/>
      <point x="325" y="23"/>
      <point x="325" y="64" type="curve" smooth="yes"/>
      <point x="325" y="105"/>
      <point x="359" y="139"/>
      <point x="400" y="139" type="curve" smooth="yes"/>
      <point x="441" y="139"/>
      <point x="475" y="105"/>
    </contour>
  </outline>
</glyph>
<glyph name="one" format="1">
  <advance width="800"/>
  <unicode hex="0031"/>
  <outline>
    <contour>
      <point x="683" y="78" type="line"/>
      <point x="639" y="73"/>
      <point x="526" y="48"/>
      <point x="453" y="48" type="curve" smooth="yes"/>
      <point x="365" y="48" type="line" smooth="yes"/>
      <point x="292" y="48"/>
      <point x="179" y="73"/>
      <point x="135" y="78" type="curve"/>
      <point x="135" y="0" type="line" smooth="yes"/>
      <point x="683" y="0" type="line" smooth="yes"/>
    </contour>
    <contour>
      <point x="411" y="672" type="line"/>
      <point x="384" y="605"/>
      <point x="310" y="504"/>
      <point x="266" y="504" type="curve" smooth="yes"/>
      <point x="239" y="504"/>
      <point x="233" y="544"/>
      <point x="188" y="544" type="curve" smooth="yes"/>
      <point x="165" y="544"/>
      <point x="143" y="527"/>
      <point x="143" y="500" type="curve" smooth="yes"/>
      <point x="143" y="462"/>
      <point x="174" y="442"/>
      <point x="214" y="442" type="curve" smooth="yes"/>
      <point x="261" y="442"/>
      <point x="322" y="474"/>
      <point x="364" y="546" type="curve"/>
      <point x="365" y="0" type="line"/>
      <point x="453" y="0" type="line"/>
      <point x="453" y="672" type="line"/>
    </contour>
  </outline>
</glyph>
<glyph name="two" format="1">
  <advance width="800"/>
  <unicode hex="0032"/>
  <outline>
    <contour>
      <point x="125" y="58" type="curve" smooth="yes"/>
      <point x="125" y="0" type="line" smooth="yes"/>
      <point x="675" y="0" type="line" smooth="yes"/>
      <point x="675" y="78" type="line"/>
      <point x="631" y="73"/>
      <point x="518" y="48"/>
      <point x="445" y="48" type="curve" smooth="yes"/>
      <point x="357" y="48" type="line" smooth="yes"/>
      <point x="320" y="48"/>
      <point x="275" y="51"/>
      <point x="234" y="60" type="curve" smooth="yes"/>
      <point x="221" y="63"/>
      <point x="211" y="83"/>
      <point x="211" y="96" type="curve" smooth="yes"/>
      <point x="211" y="156"/>
      <point x="255" y="185"/>
      <point x="330" y="218" type="curve" smooth="yes"/>
      <point x="458" y="274"/>
      <point x="655" y="273"/>
      <point x="655" y="464" type="curve" smooth="yes"/>
      <point x="655" y="559"/>
      <point x="571" y="672"/>
      <point x="415" y="672" type="curve" smooth="yes"/>
      <point x="267" y="672"/>
      <point x="126" y="586"/>
      <point x="127" y="529" type="curve" smooth="yes"/>
      <point x="126" y="505"/>
      <point x="141" y="482"/>
      <point x="173" y="482" type="curve" smooth="yes"/>
      <point x="206" y="482"/>
      <point x="255" y="502"/>
      <point x="256" y="523" type="curve" smooth="yes"/>
      <point x="255" y="556"/>
      <point x="218" y="563"/>
      <point x="244" y="588" type="curve" smooth="yes"/>
      <point x="268" y="613"/>
      <point x="318" y="634"/>
      <point x="366" y="634" type="curve" smooth="yes"/>
      <point x="479" y="634"/>
      <point x="561" y="550"/>
      <point x="561" y="438" type="curve" smooth="yes"/>
      <point x="561" y="316"/>
      <point x="404" y="298"/>
      <point x="318" y="259" type="curve" smooth="yes"/>
      <point x="219" y="214"/>
      <point x="125" y="154"/>
    </contour>
  </outline>
</glyph>
<glyph name="three" format="1">
  <advance width="800"/>
  <unicode hex="0033"/>
  <outline>
    <contour>
      <point x="428" y="672" type="curve" smooth="yes"/>
      <point x="294" y="672"/>
      <point x="142" y="613"/>
      <point x="142" y="533" type="curve" smooth="yes"/>
      <point x="142" y="509"/>
      <point x="156" y="486"/>
      <point x="188" y="486" type="curve" smooth="yes"/>
      <point x="221" y="486"/>
      <point x="271" y="506"/>
      <point x="271" y="527" type="curve" smooth="yes"/>
      <point x="271" y="560"/>
      <point x="220" y="566"/>
      <point x="246" y="591" type="curve" smooth="yes"/>
      <point x="270" y="616"/>
      <point x="328" y="639"/>
      <point x="376" y="639" type="curve" smooth="yes"/>
      <point x="463" y="639"/>
      <point x="546" y="593"/>
      <point x="546" y="492" type="curve" smooth="yes"/>
      <point x="546" y="399"/>
      <point x="439" y="371"/>
      <point x="331" y="374" type="curve"/>
      <point x="331" y="337" type="line"/>
      <point x="467" y="339"/>
      <point x="640" y="399"/>
      <point x="640" y="523" type="curve" smooth="yes"/>
      <point x="640" y="609"/>
      <point x="569" y="672"/>
    </contour>
    <contour>
      <point x="228" y="123" type="curve" smooth="yes"/>
      <point x="228" y="144"/>
      <point x="242" y="152"/>
      <point x="242" y="171" type="curve" smooth="yes"/>
      <point x="242" y="197"/>
      <point x="221" y="209"/>
      <point x="197" y="209" type="curve" smooth="yes"/>
      <point x="164" y="209"/>
      <point x="123" y="185"/>
      <point x="123" y="141" type="curve" smooth="yes"/>
      <point x="123" y="41"/>
      <point x="238" y="-12"/>
      <point x="363" y="-12" type="curve" smooth="yes"/>
      <point x="513" y="-12"/>
      <point x="678" y="63"/>
      <point x="678" y="213" type="curve" smooth="yes"/>
      <point x="678" y="370"/>
      <point x="482" y="372"/>
      <point x="331" y="374" type="curve"/>
      <point x="331" y="338" type="line"/>
      <point x="470" y="345"/>
      <point x="584" y="300"/>
      <point x="584" y="179" type="curve" smooth="yes"/>
      <point x="584" y="69"/>
      <point x="498" y="29"/>
      <point x="411" y="29" type="curve" smooth="yes"/>
      <point x="320" y="29"/>
      <point x="228" y="72"/>
    </contour>
  </outline>
</glyph>
<glyph name="four" format="1">
  <advance width="800"/>
  <unicode hex="0034"/>
  <outline>
    <contour>
      <point x="167" y="218" type="curve"/>
      <point x="249" y="289"/>
      <point x="409" y="393"/>
      <point x="409" y="608" type="curve" smooth="yes"/>
      <point x="409" y="648"/>
      <point x="362" y="672"/>
      <point x="330" y="672" type="curve" smooth="yes"/>
      <point x="305" y="672"/>
      <point x="281" y="657"/>
      <point x="281" y="627" type="curve" smooth="yes"/>
      <point x="281" y="600"/>
      <point x="352" y="594"/>
      <point x="352" y="560" type="curve" smooth="yes"/>
      <point x="352" y="437"/>
      <point x="175" y="308"/>
      <point x="96" y="251" type="curve" smooth="yes"/>
      <point x="96" y="251"/>
      <point x="167" y="218"/>
    </contour>
    <contour>
      <point x="439" y="221" type="curve" smooth="yes"/>
      <point x="351" y="221" type="line" smooth="yes"/>
      <point x="278" y="221"/>
      <point x="153" y="234"/>
      <point x="95" y="251" type="curve"/>
      <point x="95" y="173" type="line" smooth="yes"/>
      <point x="695" y="173" type="line" smooth="yes"/>
      <point x="695" y="251" type="line"/>
      <point x="637" y="234"/>
      <point x="512" y="221"/>
    </contour>
    <contour>
      <point x="394" y="18" type="curve"/>
      <point x="394" y="0" type="line" smooth="yes"/>
      <point x="620" y="0" type="line" smooth="yes"/>
      <point x="620" y="18" type="line"/>
      <point x="577" y="26"/>
      <point x="551" y="47"/>
      <point x="551" y="76" type="curve" smooth="yes"/>
      <point x="551" y="672" type="line" smooth="yes"/>
      <point x="509" y="672" type="line" smooth="yes"/>
      <point x="462" y="592" type="line" smooth="yes"/>
      <point x="463" y="73" type="line" smooth="yes"/>
      <point x="463" y="45"/>
      <point x="435" y="26"/>
    </contour>
  </outline>
</glyph>
<glyph name="five" format="1">
  <advance width="800"/>
  <unicode hex="0035"/>
  <outline>
    <contour>
      <point x="190" y="327" type="line"/>
      <point x="276" y="353" type="line" smooth="yes"/>
      <point x="347" y="660" type="line" smooth="yes"/>
      <point x="267" y="660" type="line" smooth="yes"/>
    </contour>
    <contour>
      <point x="312" y="595" type="curve"/>
      <point x="301" y="549" type="line"/>
      <point x="346" y="542"/>
      <point x="387" y="540"/>
      <point x="425" y="540" type="curve" smooth="yes"/>
      <point x="571" y="540"/>
      <point x="657" y="584"/>
      <point x="657" y="635" type="curve" smooth="yes"/>
      <point x="657" y="655"/>
      <point x="644" y="672"/>
      <point x="612" y="672" type="curve" smooth="yes"/>
      <point x="590" y="672"/>
      <point x="549" y="664"/>
      <point x="549" y="641" type="curve" smooth="yes"/>
      <point x="549" y="618"/>
      <point x="577" y="611"/>
      <point x="551" y="593" type="curve" smooth="yes"/>
      <point x="533" y="581"/>
      <point x="493" y="576"/>
      <point x="450" y="576" type="curve" smooth="yes"/>
      <point x="396" y="576"/>
      <point x="338" y="584"/>
    </contour>
    <contour>
      <point x="584" y="179" type="curve" smooth="yes"/>
      <point x="584" y="69"/>
      <point x="498" y="29"/>
      <point x="411" y="29" type="curve" smooth="yes"/>
      <point x="320" y="29"/>
      <point x="228" y="72"/>
      <point x="228" y="123" type="curve" smooth="yes"/>
      <point x="228" y="144"/>
      <point x="242" y="152"/>
      <point x="242" y="171" type="curve" smooth="yes"/>
      <point x="242" y="197"/>
      <point x="221" y="209"/>
      <point x="197" y="209" type="curve" smooth="yes"/>
      <point x="164" y="209"/>
      <point x="123" y="185"/>
      <point x="123" y="141" type="curve" smooth="yes"/>
      <point x="123" y="41"/>
      <point x="238" y="-12"/>
      <point x="363" y="-12" type="curve" smooth="yes"/>
      <point x="513" y="-12"/>
      <point x="678" y="63"/>
      <point x="678" y="213" type="curve" smooth="yes"/>
      <point x="678" y="385"/>
      <point x="472" y="419"/>
      <point x="340" y="393" type="curve" smooth="yes"/>
      <point x="294" y="384"/>
      <point x="224" y="353"/>
      <point x="190" y="327" type="curve"/>
      <point x="223" y="310" type="line"/>
      <point x="245" y="326"/>
      <point x="287" y="338"/>
      <point x="337" y="349" type="curve" smooth="yes"/>
      <point x="472" y="379"/>
      <point x="584" y="300"/>
    </contour>
  </outline>
</glyph>
<glyph name="six" format="1">
  <advance width="800"/>
  <unicode hex="0036"/>
  <outline>
    <contour>
      <point x="211" y="260" type="curve" smooth="yes"/>
      <point x="211" y="334"/>
      <point x="302" y="378"/>
      <point x="395" y="378" type="curve" smooth="yes"/>
      <point x="495" y="378"/>
      <point x="597" y="320"/>
      <point x="597" y="203" type="curve" smooth="yes"/>
      <point x="597" y="87"/>
      <point x="513" y="28"/>
      <point x="423" y="28" type="curve" smooth="yes"/>
      <point x="320" y="28"/>
      <point x="211" y="104"/>
    </contour>
    <contour>
      <point x="216" y="357" type="curve"/>
      <point x="232" y="487"/>
      <point x="393" y="618"/>
      <point x="596" y="643" type="curve"/>
      <point x="577" y="673" type="line"/>
      <point x="352" y="672"/>
      <point x="109" y="516"/>
      <point x="109" y="242" type="curve" smooth="yes"/>
      <point x="109" y="66"/>
      <point x="244" y="-12"/>
      <point x="384" y="-12" type="curve" smooth="yes"/>
      <point x="535" y="-12"/>
      <point x="691" y="79"/>
      <point x="691" y="236" type="curve" smooth="yes"/>
      <point x="691" y="361"/>
      <point x="572" y="436"/>
      <point x="447" y="436" type="curve" smooth="yes"/>
      <point x="359" y="436"/>
      <point x="269" y="404"/>
    </contour>
  </outline>
</glyph>
<glyph name="nine" format="1">
  <advance width="800"/>
  <unicode hex="0039"/>
  <outline>
    <contour>
      <point x="589" y="401" type="curve" smooth="yes"/>
      <point x="589" y="327"/>
      <point x="498" y="283"/>
      <point x="405" y="283" type="curve" smooth="yes"/>
      <point x="305" y="283"/>
      <point x="203" y="341"/>
      <point x="203" y="458" type="curve" smooth="yes"/>
      <point x="203" y="574"/>
      <point x="287" y="633"/>
      <point x="377" y="633" type="curve" smooth="yes"/>
      <point x="480" y="633"/>
      <point x="589" y="557"/>
    </contour>
    <contour>
      <point x="584" y="304" type="curve"/>
      <point x="568" y="174"/>
      <point x="407" y="43"/>
      <point x="204" y="18" type="curve"/>
      <point x="223" y="-12" type="line"/>
      <point x="448" y="-11"/>
      <point x="691" y="145"/>
      <point x="691" y="419" type="curve" smooth="yes"/>
      <point x="691" y="595"/>
      <point x="556" y="673"/>
      <point x="416" y="673" type="curve" smooth="yes"/>
      <point x="265" y="673"/>
      <point x="109" y="582"/>
      <point x="109" y="425" type="curve" smooth="yes"/>
      <point x="109" y="300"/>
      <point x="228" y="225"/>
      <point x="353" y="225" type="curve" smooth="yes"/>
      <point x="441" y="225"/>
      <point x="531" y="257"/>
    </contour>
  </outline>
</glyph>
<glyph name="less" format="1">
  <advance width="800"/>
  <unicode hex="003C"/>
  <outline>
    <contour>
      <point x="218" y="327" type="line" smooth="yes"/>
      <point x="675" y="543" type="line" smooth="yes"/>
      <point x="675" y="606" type="line" smooth="yes"/>
      <point x="138" y="347" type="line" smooth="yes"/>
      <point x="138" y="276" type="line" smooth="yes"/>
      <point x="675" y="0" type="line" smooth="yes"/>
      <point x="675" y="88" type="line" smooth="yes"/>
    </contour>
  </outline>
</glyph>
<glyph name="greater" format="1">
  <advance width="800"/>
  <unicode hex="003E"/>
  <outline>
    <contour>
      <point x="582" y="279" type="line" smooth="yes"/>
      <point x="125" y="63" type="line" smooth="yes"/>
      <point x="125" y="0" type="line" smooth="yes"/>
      <point x="662" y="259" type="line" smooth="yes"/>
      <point x="662" y="330" type="line" smooth="yes"/>
      <point x="125" y="606" type="line" smooth="yes"/>
      <point x="125" y="518" type="line" smooth="yes"/>
    </contour>
  </outline>
</glyph>
<glyph name="question" format="1">
  <advance width="800"/>
  <unicode hex="003F"/>
  <outline>
    <contour>
      <point x="464" y="52" type="curve" smooth="yes"/>
      <point x="464" y="17"/>
      <point x="435" y="-12"/>
      <point x="400" y="-12" type="curve" smooth="yes"/>
      <point x="365" y="-12"/>
      <point x="336" y="17"/>
      <point x="336" y="52" type="curve" smooth="yes"/>
      <point x="336" y="87"/>
      <point x="365" y="116"/>
      <point x="400" y="116" type="curve" smooth="yes"/>
      <point x="435" y="116"/>
      <point x="464" y="87"/>
    </contour>
    <contour>
      <point x="640" y="518" type="curve" smooth="yes"/>
      <point x="640" y="628"/>
      <point x="539" y="673"/>
      <point x="429" y="673" type="curve" smooth="yes"/>
      <point x="301" y="673"/>
      <point x="161" y="612"/>
      <point x="161" y="524" type="curve" smooth="yes"/>
      <point x="161" y="502"/>
      <point x="178" y="482"/>
      <point x="207" y="482" type="curve" smooth="yes"/>
      <point x="240" y="482"/>
      <point x="290" y="502"/>
      <point x="290" y="523" type="curve" smooth="yes"/>
      <point x="290" y="556"/>
      <point x="254" y="562"/>
      <point x="278" y="588" type="curve" smooth="yes"/>
      <point x="308" y="622"/>
      <point x="361" y="644"/>
      <point x="404" y="644" type="curve" smooth="yes"/>
      <point x="481" y="644"/>
      <point x="550" y="590"/>
      <point x="550" y="502" type="curve" smooth="yes"/>
      <point x="550" y="388"/>
      <point x="351" y="432"/>
      <point x="382" y="223" type="curve"/>
      <point x="419" y="223" type="line"/>
      <point x="411" y="407"/>
      <point x="640" y="353"/>
    </contour>
  </outline>
</glyph>
<glyph name="B" format="1">
  <advance width="778"/>
  <unicode hex="0042"/>
  <outline>
    <contour>
      <point x="92" y="724" type="line"/>
      <point x="92" y="733"/>
      <point x="92" y="187"/>
      <point x="92" y="8" type="curve"/>
      <point x="92" y="3"/>
      <point x="100" y="0"/>
      <point x="111" y="0" type="curve" smooth="yes"/>
      <point x="136" y="0"/>
      <point x="177" y="11"/>
      <point x="177" y="29" type="curve"/>
      <point x="177" y="29"/>
      <point x="177" y="659"/>
      <point x="177" y="659" type="curve" smooth="yes"/>
      <point x="177" y="659"/>
      <point x="177" y="741"/>
      <point x="177" y="746" type="curve"/>
      <point x="177" y="749"/>
      <point x="173" y="750"/>
      <point x="168" y="750" type="curve" smooth="yes"/>
      <point x="141" y="750"/>
      <point x="109" y="724"/>
      <point x="92" y="724" type="curve" smooth="yes"/>
    </contour>
    <contour>
      <point x="162" y="690" type="line"/>
      <point x="230" y="718"/>
      <point x="262" y="728"/>
      <point x="326" y="728" type="curve" smooth="yes"/>
      <point x="450" y="728"/>
      <point x="562" y="686"/>
      <point x="562" y="560" type="curve" smooth="yes"/>
      <point x="562" y="474"/>
      <point x="470" y="408"/>
      <point x="402" y="408" type="curve" smooth="yes"/>
      <point x="380" y="408"/>
      <point x="220" y="408"/>
      <point x="166" y="408" type="curve" smooth="yes"/>
      <point x="151" y="408"/>
      <point x="119" y="398"/>
      <point x="108" y="387" type="curve" smooth="yes"/>
      <point x="96" y="371"/>
      <point x="119" y="371"/>
      <point x="129" y="371" type="curve" smooth="yes"/>
      <point x="183" y="371"/>
      <point x="299" y="371"/>
      <point x="305" y="371" type="curve" smooth="yes"/>
      <point x="412" y="371"/>
      <point x="518" y="381"/>
      <point x="593" y="463" type="curve" smooth="yes"/>
      <point x="625" y="496"/>
      <point x="647" y="533"/>
      <point x="647" y="582" type="curve" smooth="yes"/>
      <point x="647" y="718"/>
      <point x="513" y="772"/>
      <point x="380" y="772" type="curve" smooth="yes"/>
      <point x="295" y="772"/>
      <point x="209" y="751"/>
      <point x="129" y="718" type="curve" smooth="yes"/>
      <point x="124" y="713"/>
      <point x="92" y="702"/>
      <point x="102" y="690" type="curve" smooth="yes"/>
      <point x="114" y="675"/>
      <point x="151" y="690"/>
      <point x="162" y="690" type="curve"/>
    </contour>
    <contour>
      <point x="129" y="371" type="line"/>
      <point x="181" y="371"/>
      <point x="235" y="371"/>
      <point x="294" y="371" type="curve" smooth="yes"/>
      <point x="390" y="371"/>
      <point x="506" y="371"/>
      <point x="576" y="301" type="curve" smooth="yes"/>
      <point x="602" y="268"/>
      <point x="619" y="234"/>
      <point x="619" y="197" type="curve" smooth="yes"/>
      <point x="619" y="121"/>
      <point x="550" y="45"/>
      <point x="469" y="28" type="curve" smooth="yes"/>
      <point x="373" y="7"/>
      <point x="266" y="39"/>
      <point x="181" y="77" type="curve" smooth="yes"/>
      <point x="160" y="84"/>
      <point x="133" y="72"/>
      <point x="118" y="66" type="curve" smooth="yes"/>
      <point x="107" y="62"/>
      <point x="91" y="45"/>
      <point x="107" y="39" type="curve" smooth="yes"/>
      <point x="187" y="7"/>
      <point x="272" y="-20"/>
      <point x="363" y="-20" type="curve" smooth="yes"/>
      <point x="576" y="-20"/>
      <point x="705" y="104"/>
      <point x="705" y="219" type="curve" smooth="yes"/>
      <point x="705" y="371"/>
      <point x="533" y="408"/>
      <point x="384" y="408" type="curve"/>
      <point x="384" y="408"/>
      <point x="390" y="408"/>
      <point x="166" y="408" type="curve" smooth="yes"/>
      <point x="150" y="408"/>
      <point x="118" y="398"/>
      <point x="107" y="387" type="curve" smooth="yes"/>
      <point x="96" y="371"/>
      <point x="118" y="371"/>
      <point x="129" y="371" type="curve"/>
    </contour>
    <contour>
      <point x="92" y="50" type="move"/>
      <point x="92" y="39"/>
      <point x="78" y="18"/>
      <point x="48" y="18" type="curve"/>
      <point x="48" y="0" type="line"/>
      <point x="111" y="0" type="line"/>
    </contour>
    <contour>
      <point x="168" y="750" type="move"/>
      <point x="48" y="750" type="line"/>
      <point x="48" y="732" type="line"/>
      <point x="78" y="732"/>
      <point x="92" y="711"/>
      <point x="92" y="700" type="curve"/>
    </contour>
  </outline>
</glyph>
<glyph name="C" format="1">
  <advance width="799.6111877809942"/>
  <unicode hex="0043"/>
  <outline>
    <contour>
      <point x="395" y="672" type="curve" smooth="yes"/>
      <point x="184" y="672"/>
      <point x="39" y="528"/>
      <point x="39" y="320" type="curve" smooth="yes"/>
      <point x="39" y="112"/>
      <point x="208" y="-12"/>
      <point x="416" y="-12" type="curve" smooth="yes"/>
      <point x="555" y="-12"/>
      <point x="662" y="70"/>
      <point x="728" y="192" type="curve" smooth="yes"/>
      <point x="749" y="230"/>
      <point x="653" y="223"/>
      <point x="639" y="186" type="curve" smooth="yes"/>
      <point x="605" y="95"/>
      <point x="522" y="35"/>
      <point x="425" y="35" type="curve" smooth="yes"/>
      <point x="252" y="35"/>
      <point x="152" y="169"/>
      <point x="152" y="342" type="curve" smooth="yes"/>
      <point x="152" y="492"/>
      <point x="237" y="627"/>
      <point x="387" y="627" type="curve" smooth="yes"/>
      <point x="495" y="627"/>
      <point x="618" y="574"/>
      <point x="662" y="449" type="curve"/>
      <point x="691" y="449" type="line"/>
      <point x="691" y="648" type="line"/>
      <point x="665" y="648" type="line"/>
      <point x="622" y="600" type="line"/>
      <point x="546" y="649"/>
      <point x="479" y="672"/>
    </contour>
  </outline>
</glyph>
<glyph name="D" format="1">
  <advance width="800"/>
  <unicode hex="0044"/>
  <outline>
    <contour>
      <point x="414" y="660" type="curve" smooth="yes"/>
      <point x="228" y="660" type="line"/>
      <point x="228" y="623" type="line" smooth="yes"/>
      <point x="346" y="623" type="line" smooth="yes"/>
      <point x="543" y="623"/>
      <point x="639" y="469"/>
      <point x="639" y="318" type="curve" smooth="yes"/>
      <point x="639" y="174"/>
      <point x="541" y="33"/>
      <point x="387" y="33" type="curve" smooth="yes"/>
      <point x="228" y="33" type="line" smooth="yes"/>
      <point x="228" y="0" type="line"/>
      <point x="372" y="0" type="line" smooth="yes"/>
      <point x="628" y="0"/>
      <point x="748" y="174"/>
      <point x="748" y="342" type="curve" smooth="yes"/>
      <point x="748" y="503"/>
      <point x="619" y="660"/>
    </contour>
    <contour>
      <point x="60" y="18" type="curve"/>
      <point x="60" y="0" type="line" smooth="yes"/>
      <point x="228" y="0" type="line" smooth="yes"/>
      <point x="228" y="660" type="line" smooth="yes"/>
      <point x="60" y="660" type="line" smooth="yes"/>
      <point x="60" y="642" type="line"/>
      <point x="103" y="634"/>
      <point x="129" y="613"/>
      <point x="129" y="584" type="curve"/>
      <point x="129" y="76" type="line"/>
      <point x="129" y="47"/>
      <point x="103" y="26"/>
    </contour>
  </outline>
</glyph>
<glyph name="E" format="1">
  <advance width="800"/>
  <unicode hex="0045"/>
  <outline>
    <contour>
      <point x="483" y="45" type="curve" smooth="yes"/>
      <point x="234" y="45" type="line" smooth="yes"/>
      <point x="234" y="0" type="line" smooth="yes"/>
      <point x="672" y="0" type="line"/>
      <point x="724" y="192" type="line" smooth="yes"/>
      <point x="679" y="192" type="line"/>
      <point x="654" y="77"/>
      <point x="603" y="45"/>
    </contour>
    <contour>
      <point x="467" y="615" type="line" smooth="yes"/>
      <point x="560" y="615"/>
      <point x="611" y="603"/>
      <point x="641" y="508" type="curve"/>
      <point x="686" y="508" type="line" smooth="yes"/>
      <point x="648" y="660" type="line" smooth="yes"/>
      <point x="235" y="660" type="line" smooth="yes"/>
      <point x="235" y="615" type="line" smooth="yes"/>
    </contour>
    <contour>
      <point x="544" y="244" type="curve"/>
      <point x="568" y="244" type="line" smooth="yes"/>
      <point x="568" y="427" type="line" smooth="yes"/>
      <point x="544" y="427" type="line"/>
      <point x="536" y="384"/>
      <point x="515" y="358"/>
      <point x="486" y="358" type="curve"/>
      <point x="235" y="358" type="line" smooth="yes"/>
      <point x="235" y="313" type="line" smooth="yes"/>
      <point x="486" y="313" type="line"/>
      <point x="515" y="313"/>
      <point x="536" y="287"/>
    </contour>
    <contour>
      <point x="76" y="18" type="curve"/>
      <point x="76" y="0" type="line" smooth="yes"/>
      <point x="245" y="0" type="line" smooth="yes"/>
      <point x="245" y="660" type="line" smooth="yes"/>
      <point x="76" y="660" type="line" smooth="yes"/>
      <point x="76" y="642" type="line"/>
      <point x="119" y="634"/>
      <point x="145" y="613"/>
      <point x="145" y="584" type="curve" smooth="yes"/>
      <point x="145" y="76" type="line" smooth="yes"/>
      <point x="145" y="47"/>
      <point x="119" y="26"/>
    </contour>
  </outline>
</glyph>
<glyph name="G" format="1">
  <advance width="800"/>
  <unicode hex="0047"/>
  <outline>
    <contour>
      <point x="761" y="273" type="line" smooth="yes"/>
      <point x="761" y="255" type="line"/>
      <point x="718" y="247"/>
      <point x="692" y="226"/>
      <point x="692" y="197" type="curve" smooth="yes"/>
      <point x="693" y="114" type="line"/>
      <point x="634" y="38"/>
      <point x="535" y="-12"/>
      <point x="414" y="-12" type="curve" smooth="yes"/>
      <point x="229" y="-12"/>
      <point x="39" y="90"/>
      <point x="39" y="320" type="curve" smooth="yes"/>
      <point x="39" y="560"/>
      <point x="216" y="672"/>
      <point x="395" y="672" type="curve" smooth="yes"/>
      <point x="479" y="672"/>
      <point x="546" y="649"/>
      <point x="622" y="600" type="curve"/>
      <point x="665" y="648" type="line"/>
      <point x="691" y="648" type="line"/>
      <point x="691" y="449" type="line"/>
      <point x="662" y="449" type="line"/>
      <point x="618" y="574"/>
      <point x="495" y="627"/>
      <point x="387" y="627" type="curve" smooth="yes"/>
      <point x="268" y="627"/>
      <point x="152" y="506"/>
      <point x="152" y="341" type="curve" smooth="yes"/>
      <point x="152" y="125"/>
      <point x="283" y="34"/>
      <point x="425" y="34" type="curve" smooth="yes"/>
      <point x="469" y="34"/>
      <point x="540" y="51"/>
      <point x="592" y="107" type="curve"/>
      <point x="592" y="197" type="line" smooth="yes"/>
      <point x="592" y="226"/>
      <point x="566" y="247"/>
      <point x="523" y="255" type="curve"/>
      <point x="523" y="273" type="line"/>
    </contour>
  </outline>
</glyph>
<glyph name="H" format="1">
  <advance width="800"/>
  <unicode hex="0048"/>
  <outline>
    <contour>
      <point x="619" y="323" type="line" smooth="yes"/>
      <point x="619" y="368" type="line" smooth="yes"/>
      <point x="164" y="368" type="line" smooth="yes"/>
      <point x="164" y="323" type="line" smooth="yes"/>
    </contour>
    <contour>
      <point x="37" y="18" type="curve"/>
      <point x="37" y="0" type="line" smooth="yes"/>
      <point x="275" y="0" type="line" smooth="yes"/>
      <point x="275" y="18" type="line"/>
      <point x="232" y="26"/>
      <point x="206" y="47"/>
      <point x="206" y="76" type="curve"/>
      <point x="206" y="584" type="line"/>
      <point x="206" y="613"/>
      <point x="232" y="634"/>
      <point x="275" y="642" type="curve"/>
      <point x="275" y="660" type="line" smooth="yes"/>
      <point x="37" y="660" type="line" smooth="yes"/>
      <point x="37" y="642" type="line"/>
      <point x="80" y="634"/>
      <point x="106" y="613"/>
      <point x="106" y="584" type="curve"/>
      <point x="106" y="76" type="line"/>
      <point x="106" y="47"/>
      <point x="80" y="26"/>
    </contour>
    <contour>
      <point x="525" y="18" type="curve"/>
      <point x="525" y="0" type="line" smooth="yes"/>
      <point x="763" y="0" type="line" smooth="yes"/>
      <point x="763" y="18" type="line"/>
      <point x="720" y="26"/>
      <point x="694" y="47"/>
      <point x="694" y="76" type="curve"/>
      <point x="694" y="584" type="line"/>
      <point x="694" y="613"/>
      <point x="720" y="634"/>
      <point x="763" y="642" type="curve"/>
      <point x="763" y="660" type="line" smooth="yes"/>
      <point x="525" y="660" type="line" smooth="yes"/>
      <point x="525" y="642" type="line"/>
      <point x="568" y="634"/>
      <point x="594" y="613"/>
      <point x="594" y="584" type="curve"/>
      <point x="594" y="76" type="line"/>
      <point x="594" y="47"/>
      <point x="568" y="26"/>
    </contour>
  </outline>
</glyph>
<glyph name="I" format="1">
  <advance width="800"/>
  <unicode hex="0049"/>
  <outline>
    <contour>
      <point x="125" y="660" type="line" smooth="yes"/>
      <point x="125" y="615" type="line" smooth="yes"/>
      <point x="281" y="615" type="line"/>
      <point x="324.0" y="607.0"/>
      <point x="350" y="586"/>
      <point x="350" y="557" type="curve" smooth="yes"/>
      <point x="350" y="103" type="line" smooth="yes"/>
      <point x="350" y="74"/>
      <point x="324" y="53"/>
      <point x="281" y="45" type="curve"/>
      <point x="125" y="45" type="line" smooth="yes"/>
      <point x="125" y="0" type="line"/>
      <point x="675" y="0" type="line"/>
      <point x="675" y="45" type="line" smooth="yes"/>
      <point x="519" y="45" type="line"/>
      <point x="476" y="53"/>
      <point x="450" y="74"/>
      <point x="450" y="103" type="curve" smooth="yes"/>
      <point x="450" y="557" type="line" smooth="yes"/>
      <point x="450" y="586"/>
      <point x="470" y="607"/>
      <point x="513" y="615" type="curve"/>
      <point x="675" y="615" type="line" smooth="yes"/>
      <point x="675" y="660" type="line"/>
    </contour>
  </outline>
</glyph>
<glyph name="J" format="1">
  <advance width="800"/>
  <unicode hex="004A"/>
  <outline>
    <contour>
      <point x="619" y="240" type="curve" smooth="yes"/>
      <point x="619" y="584" type="line"/>
      <point x="619" y="613"/>
      <point x="645" y="634"/>
      <point x="688" y="642" type="curve"/>
      <point x="688" y="660" type="line" smooth="yes"/>
      <point x="450" y="660" type="line" smooth="yes"/>
      <point x="450" y="642" type="line"/>
      <point x="493" y="634"/>
      <point x="519" y="613"/>
      <point x="519" y="584" type="curve"/>
      <point x="519" y="220" type="line" smooth="yes"/>
      <point x="519" y="124"/>
      <point x="469" y="36"/>
      <point x="380" y="36" type="curve" smooth="yes"/>
      <point x="309" y="36"/>
      <point x="227" y="77"/>
      <point x="227" y="146" type="curve" smooth="yes"/>
      <point x="227" y="167"/>
      <point x="244" y="174"/>
      <point x="244" y="193" type="curve" smooth="yes"/>
      <point x="244" y="212"/>
      <point x="223" y="231"/>
      <point x="199" y="231" type="curve" smooth="yes"/>
      <point x="160" y="231"/>
      <point x="125" y="202"/>
      <point x="125" y="163" type="curve" smooth="yes"/>
      <point x="125" y="53"/>
      <point x="237" y="-12"/>
      <point x="350" y="-12" type="curve" smooth="yes"/>
      <point x="496" y="-12"/>
      <point x="619" y="84"/>
    </contour>
  </outline>
</glyph>
<glyph name="K" format="1">
  <advance width="800"/>
  <unicode hex="004B"/>
  <outline>
    <contour>
      <point x="231" y="269" type="line" smooth="yes"/>
      <point x="558" y="592" type="line" smooth="yes"/>
      <point x="585" y="618"/>
      <point x="617" y="634"/>
      <point x="660" y="642" type="curve"/>
      <point x="660" y="660" type="line" smooth="yes"/>
      <point x="450" y="660" type="line" smooth="yes"/>
      <point x="450" y="642" type="line"/>
      <point x="504" y="636"/>
      <point x="522" y="622"/>
      <point x="491" y="592" type="curve" smooth="yes"/>
      <point x="164" y="269" type="line" smooth="yes"/>
    </contour>
    <contour>
      <point x="259" y="335" type="line" smooth="yes"/>
      <point x="513" y="75" type="line" smooth="yes"/>
      <point x="555" y="33"/>
      <point x="530" y="17"/>
      <point x="481" y="17" type="curve"/>
      <point x="481" y="0" type="line" smooth="yes"/>
      <point x="744" y="0" type="line" smooth="yes"/>
      <point x="744" y="18" type="line"/>
      <point x="687" y="24"/>
      <point x="661" y="49"/>
      <point x="636" y="75" type="curve" smooth="yes"/>
      <point x="340" y="377" type="line" smooth="yes"/>
    </contour>
    <contour>
      <point x="65" y="18" type="curve"/>
      <point x="65" y="0" type="line" smooth="yes"/>
      <point x="303" y="0" type="line" smooth="yes"/>
      <point x="303" y="18" type="line"/>
      <point x="260" y="26"/>
      <point x="234" y="47"/>
      <point x="234" y="76" type="curve"/>
      <point x="234" y="584" type="line"/>
      <point x="234" y="613"/>
      <point x="260" y="634"/>
      <point x="303" y="642" type="curve"/>
      <point x="303" y="660" type="line" smooth="yes"/>
      <point x="65" y="660" type="line" smooth="yes"/>
      <point x="65" y="642" type="line"/>
      <point x="108" y="634"/>
      <point x="134" y="613"/>
      <point x="134" y="584" type="curve"/>
      <point x="134" y="76" type="line"/>
      <point x="134" y="47"/>
      <point x="108" y="26"/>
    </contour>
  </outline>
</glyph>
<glyph name="L" format="1">
  <advance width="778"/>
  <unicode hex="004C"/>
  <outline>
    <contour>
      <point x="134" y="50" type="move"/>
      <point x="134" y="39"/>
      <point x="120" y="18"/>
      <point x="90" y="18" type="curve"/>
      <point x="90" y="0" type="line"/>
      <point x="263" y="0" type="line"/>
      <point x="263" y="45" type="line"/>
      <point x="233" y="45"/>
      <point x="219" y="66"/>
      <point x="219" y="77" type="curve"/>
    </contour>
    <contour>
      <point x="219" y="700" type="move"/>
      <point x="219" y="711"/>
      <point x="233" y="732"/>
      <point x="263" y="732" type="curve"/>
      <point x="263" y="750" type="line"/>
      <point x="90" y="750" type="line"/>
      <point x="90" y="732" type="line"/>
      <point x="120" y="732"/>
      <point x="134" y="711"/>
      <point x="134" y="700" type="curve"/>
    </contour>
    <contour>
      <point x="134" y="8" type="line" smooth="yes"/>
      <point x="134" y="-8"/>
      <point x="219" y="3"/>
      <point x="219" y="29" type="curve" smooth="yes"/>
      <point x="219" y="732" type="line" smooth="yes"/>
      <point x="219" y="747"/>
      <point x="134" y="732"/>
      <point x="134" y="704" type="curve" smooth="yes"/>
    </contour>
    <contour>
      <point x="616" y="0" type="line" smooth="yes"/>
      <point x="632" y="0"/>
      <point x="663" y="45"/>
      <point x="653" y="45" type="curve" smooth="yes"/>
      <point x="178" y="45" type="line" smooth="yes"/>
      <point x="163" y="45"/>
      <point x="131" y="0"/>
      <point x="142" y="0" type="curve" smooth="yes"/>
    </contour>
    <contour>
      <point x="574" y="0" type="move"/>
      <point x="674" y="0" type="line"/>
      <point x="688" y="139" type="line"/>
      <point x="656" y="139" type="line"/>
      <point x="656" y="109"/>
      <point x="649" y="45"/>
      <point x="570" y="45" type="curve"/>
    </contour>
  </outline>
</glyph>
<glyph name="M" format="1">
  <advance width="800"/>
  <unicode hex="004D"/>
  <outline>
    <contour>
      <point x="612" y="598" type="line"/>
      <point x="405.0" y="40.0" type="line"/>
      <point x="352.0" y="40.0" type="line"/>
      <point x="143.0" y="603.0" type="line"/>
      <point x="155.0" y="605.0" type="line"/>
      <point x="155.0" y="76.0" type="line"/>
      <point x="155.0" y="47.0"/>
      <point x="181.0" y="26.0"/>
      <point x="224.0" y="18.0" type="curve"/>
      <point x="224.0" y="0.0" type="line" smooth="yes"/>
      <point x="31.0" y="0.0" type="line" smooth="yes"/>
      <point x="31.0" y="18.0" type="line"/>
      <point x="74.0" y="26.0"/>
      <point x="100.0" y="47.0"/>
      <point x="100.0" y="76.0" type="curve"/>
      <point x="100.0" y="584.0" type="line"/>
      <point x="100.0" y="613.0"/>
      <point x="74.0" y="634.0"/>
      <point x="31.0" y="642.0" type="curve"/>
      <point x="31.0" y="660.0" type="line"/>
      <point x="218.0" y="660.0" type="line"/>
      <point x="409.0" y="132.0" type="line"/>
      <point x="387.0" y="133.0" type="line"/>
      <point x="582" y="660" type="line"/>
      <point x="769" y="660" type="line"/>
      <point x="769.0" y="642.0" type="line"/>
      <point x="726.0" y="634.0"/>
      <point x="700.0" y="613.0"/>
      <point x="700.0" y="584.0" type="curve"/>
      <point x="700.0" y="76.0" type="line"/>
      <point x="700.0" y="47.0"/>
      <point x="726.0" y="26.0"/>
      <point x="769.0" y="18.0" type="curve"/>
      <point x="769.0" y="0.0" type="line" smooth="yes"/>
      <point x="531.0" y="0.0" type="line" smooth="yes"/>
      <point x="531.0" y="18.0" type="line"/>
      <point x="574.0" y="26.0"/>
      <point x="600.0" y="47.0"/>
      <point x="600.0" y="76.0" type="curve"/>
      <point x="600" y="601" type="line"/>
    </contour>
  </outline>
</glyph>
<glyph name="N" format="1">
  <advance width="800"/>
  <unicode hex="004E"/>
  <outline>
    <contour>
      <point x="620" y="76" type="line"/>
      <point x="234.0" y="660.0" type="line"/>
      <point x="73.0" y="660.0" type="line" smooth="yes"/>
      <point x="73.0" y="642.0" type="line"/>
      <point x="116.0" y="634.0"/>
      <point x="142.0" y="613.0"/>
      <point x="142.0" y="584.0" type="curve" smooth="yes"/>
      <point x="142.0" y="76.0" type="line" smooth="yes"/>
      <point x="142.0" y="47.0"/>
      <point x="116.0" y="26.0"/>
      <point x="73.0" y="18.0" type="curve"/>
      <point x="73.0" y="0.0" type="line" smooth="yes"/>
      <point x="266.0" y="0.0" type="line" smooth="yes"/>
      <point x="266.0" y="18.0" type="line"/>
      <point x="223.0" y="26.0"/>
      <point x="197.0" y="47.0"/>
      <point x="197.0" y="76.0" type="curve" smooth="yes"/>
      <point x="197.0" y="596.0" type="line"/>
      <point x="174.0" y="589.0" type="line"/>
      <point x="568.0" y="0.0" type="line"/>
      <point x="658" y="0" type="line"/>
      <point x="658.0" y="584.0" type="line"/>
      <point x="658.0" y="613.0"/>
      <point x="684.0" y="634.0"/>
      <point x="727.0" y="642.0" type="curve"/>
      <point x="727.0" y="660.0" type="line" smooth="yes"/>
      <point x="534.0" y="660.0" type="line" smooth="yes"/>
      <point x="534.0" y="642.0" type="line"/>
      <point x="577.0" y="634.0"/>
      <point x="603.0" y="613.0"/>
      <point x="603.0" y="584.0" type="curve"/>
      <point x="603" y="72" type="line"/>
    </contour>
  </outline>
</glyph>
<glyph name="O" format="1">
  <advance width="800"/>
  <unicode hex="004F"/>
  <outline>
    <contour>
      <point x="380" y="627" type="curve" smooth="yes"/>
      <point x="513" y="627"/>
      <point x="653" y="517"/>
      <point x="653" y="308" type="curve" smooth="yes"/>
      <point x="653" y="123"/>
      <point x="540" y="34"/>
      <point x="420" y="34" type="curve" smooth="yes"/>
      <point x="288" y="34"/>
      <point x="147" y="144"/>
      <point x="147" y="353" type="curve" smooth="yes"/>
      <point x="147" y="538"/>
      <point x="261" y="627"/>
    </contour>
    <contour>
      <point x="761" y="345" type="curve" smooth="yes"/>
      <point x="761" y="565"/>
      <point x="591" y="672"/>
      <point x="416" y="672" type="curve" smooth="yes"/>
      <point x="230" y="672"/>
      <point x="39" y="551"/>
      <point x="39" y="315" type="curve" smooth="yes"/>
      <point x="39" y="95"/>
      <point x="209" y="-12"/>
      <point x="384" y="-12" type="curve" smooth="yes"/>
      <point x="570" y="-12"/>
      <point x="761" y="109"/>
    </contour>
  </outline>
</glyph>
<glyph name="Q" format="1">
  <advance width="800"/>
  <unicode hex="0051"/>
  <outline>
    <contour>
      <point x="551" y="-183" type="curve" smooth="yes"/>
      <point x="675" y="-183"/>
      <point x="773" y="-94"/>
      <point x="773" y="-94" type="curve"/>
      <point x="722" y="-118"/>
      <point x="671" y="-125"/>
      <point x="631" y="-125" type="curve" smooth="yes"/>
      <point x="497" y="-125"/>
      <point x="436" y="-22"/>
      <point x="336" y="-22" type="curve" smooth="yes"/>
      <point x="302" y="-22"/>
      <point x="254" y="-40"/>
      <point x="211" y="-73" type="curve"/>
      <point x="365" y="-62"/>
      <point x="393" y="-183"/>
    </contour>
    <contour>
      <point x="380" y="627" type="curve" smooth="yes"/>
      <point x="513" y="627"/>
      <point x="653" y="517"/>
      <point x="653" y="308" type="curve" smooth="yes"/>
      <point x="653" y="123"/>
      <point x="540" y="34"/>
      <point x="420" y="34" type="curve" smooth="yes"/>
      <point x="288" y="34"/>
      <point x="147" y="144"/>
      <point x="147" y="353" type="curve" smooth="yes"/>
      <point x="147" y="538"/>
      <point x="261" y="627"/>
    </contour>
    <contour>
      <point x="761" y="345" type="curve" smooth="yes"/>
      <point x="761" y="565"/>
      <point x="591" y="672"/>
      <point x="416" y="672" type="curve" smooth="yes"/>
      <point x="230" y="672"/>
      <point x="39" y="551"/>
      <point x="39" y="315" type="curve" smooth="yes"/>
      <point x="39" y="95"/>
      <point x="209" y="-12"/>
      <point x="384" y="-12" type="curve" smooth="yes"/>
      <point x="570" y="-12"/>
      <point x="761" y="109"/>
    </contour>
  </outline>
</glyph>
<glyph name="R" format="1">
  <advance width="800"/>
  <unicode hex="0052"/>
  <outline>
    <contour>
      <point x="241" y="660" type="line" smooth="yes"/>
      <point x="241" y="615" type="line" smooth="yes"/>
      <point x="376" y="615" type="line" smooth="yes"/>
      <point x="477" y="615"/>
      <point x="558" y="555"/>
      <point x="558" y="465" type="curve" smooth="yes"/>
      <point x="558" y="378"/>
      <point x="500" y="333"/>
      <point x="374" y="333" type="curve" smooth="yes"/>
      <point x="241" y="333" type="line" smooth="yes"/>
      <point x="241" y="288" type="line" smooth="yes"/>
      <point x="386" y="288" type="line" smooth="yes"/>
      <point x="574" y="288"/>
      <point x="658" y="357"/>
      <point x="658" y="484" type="curve" smooth="yes"/>
      <point x="658" y="581"/>
      <point x="557" y="660"/>
      <point x="416" y="660" type="curve" smooth="yes"/>
    </contour>
    <contour>
      <point x="359" y="303" type="curve"/>
      <point x="359" y="288" type="line"/>
      <point x="415" y="286"/>
      <point x="477" y="273"/>
      <point x="489" y="175" type="curve" smooth="yes"/>
      <point x="504" y="60"/>
      <point x="526" y="-12"/>
      <point x="626" y="-12" type="curve" smooth="yes"/>
      <point x="716" y="-12"/>
      <point x="734" y="35"/>
      <point x="727" y="110" type="curve"/>
      <point x="703" y="107" type="line"/>
      <point x="705" y="61"/>
      <point x="697" y="31"/>
      <point x="667" y="31" type="curve" smooth="yes"/>
      <point x="636" y="31"/>
      <point x="609" y="75"/>
      <point x="591" y="192" type="curve" smooth="yes"/>
      <point x="570" y="327"/>
      <point x="449" y="303"/>
    </contour>
    <contour>
      <point x="72" y="18" type="curve"/>
      <point x="72" y="0" type="line" smooth="yes"/>
      <point x="310" y="0" type="line" smooth="yes"/>
      <point x="310" y="18" type="line"/>
      <point x="267" y="26"/>
      <point x="241" y="47"/>
      <point x="241" y="76" type="curve"/>
      <point x="241" y="660" type="line" smooth="yes"/>
      <point x="72" y="660" type="line" smooth="yes"/>
      <point x="72" y="642" type="line"/>
      <point x="115" y="634"/>
      <point x="141" y="613"/>
      <point x="141" y="584" type="curve"/>
      <point x="141" y="76" type="line"/>
      <point x="141" y="47"/>
      <point x="115" y="26"/>
    </contour>
  </outline>
</glyph>
<glyph name="S" format="1">
  <advance width="800"/>
  <unicode hex="0053"/>
  <outline>
    <contour>
      <point x="379" y="672" type="move"/>
      <point x="227" y="672"/>
      <point x="104" y="588"/>
      <point x="104" y="473" type="curve" smooth="yes"/>
      <point x="104" y="260"/>
      <point x="611" y="336"/>
      <point x="613" y="151" type="curve" smooth="yes"/>
      <point x="614" y="68"/>
      <point x="530" y="20"/>
      <point x="428" y="20" type="curve" smooth="yes"/>
      <point x="316" y="20"/>
      <point x="183" y="79"/>
      <point x="120" y="213" type="curve"/>
      <point x="83" y="213" type="line"/>
      <point x="83" y="2" type="line"/>
      <point x="116" y="2" type="line"/>
      <point x="149" y="60" type="line"/>
      <point x="253" y="8"/>
      <point x="347" y="-12"/>
      <point x="427" y="-12" type="curve" smooth="yes"/>
      <point x="607" y="-12"/>
      <point x="717" y="90"/>
      <point x="717" y="185" type="curve" smooth="yes"/>
      <point x="717" y="417"/>
      <point x="212" y="328"/>
      <point x="208" y="503" type="curve" smooth="yes"/>
      <point x="205" y="583"/>
      <point x="289" y="629"/>
      <point x="387" y="629" type="curve" smooth="yes"/>
      <point x="495" y="629"/>
      <point x="618" y="574"/>
      <point x="662" y="449" type="curve"/>
      <point x="691" y="449" type="line"/>
      <point x="691" y="648" type="line"/>
      <point x="665" y="648" type="line"/>
      <point x="622" y="600" type="line"/>
      <point x="546" y="649"/>
      <point x="463" y="672"/>
      <point x="379" y="672" type="curve"/>
    </contour>
  </outline>
</glyph>
<glyph name="T" format="1">
  <advance width="778"/>
  <unicode hex="0054"/>
  <outline>
    <contour>
      <point x="346" y="8" type="line" smooth="yes"/>
      <point x="346" y="-8"/>
      <point x="431" y="3"/>
      <point x="431" y="29" type="curve" smooth="yes"/>
      <point x="431" y="732" type="line" smooth="yes"/>
      <point x="431" y="747"/>
      <point x="346" y="732"/>
      <point x="346" y="704" type="curve" smooth="yes"/>
    </contour>
    <contour>
      <point x="346" y="50" type="move"/>
      <point x="346" y="39"/>
      <point x="332" y="18"/>
      <point x="302" y="18" type="curve"/>
      <point x="302" y="0" type="line"/>
      <point x="475" y="0" type="line"/>
      <point x="475" y="18" type="line"/>
      <point x="445" y="18"/>
      <point x="431" y="39"/>
      <point x="431" y="50" type="curve"/>
    </contour>
    <contour>
      <point x="626" y="750" type="curve" smooth="yes"/>
      <point x="92" y="750" type="line" smooth="yes"/>
      <point x="81" y="750"/>
      <point x="113" y="705"/>
      <point x="128" y="705" type="curve" smooth="yes"/>
      <point x="663" y="705" type="line" smooth="yes"/>
      <point x="673" y="705"/>
      <point x="642" y="750"/>
    </contour>
    <contour>
      <point x="620" y="705" type="move"/>
      <point x="699" y="705"/>
      <point x="706" y="641"/>
      <point x="706" y="611" type="curve"/>
      <point x="738" y="611" type="line"/>
      <point x="724" y="750" type="line"/>
      <point x="624" y="750" type="line"/>
    </contour>
    <contour>
      <point x="154" y="750" type="move"/>
      <point x="54" y="750" type="line"/>
      <point x="40" y="611" type="line"/>
      <point x="72" y="611" type="line"/>
      <point x="72" y="641"/>
      <point x="79" y="705"/>
      <point x="158" y="705" type="curve"/>
    </contour>
  </outline>
</glyph>
<glyph name="U" format="1">
  <advance width="800"/>
  <unicode hex="0055"/>
  <outline>
    <contour>
      <point x="407" y="-12" type="curve" smooth="yes"/>
      <point x="569" y="-12"/>
      <point x="683" y="97"/>
      <point x="683" y="258" type="curve" smooth="yes"/>
      <point x="683" y="584" type="line" smooth="yes"/>
      <point x="683" y="613"/>
      <point x="709" y="634"/>
      <point x="752" y="642" type="curve"/>
      <point x="752" y="660" type="line" smooth="yes"/>
      <point x="559" y="660" type="line" smooth="yes"/>
      <point x="559" y="642" type="line"/>
      <point x="602" y="634"/>
      <point x="628" y="613"/>
      <point x="628" y="584" type="curve" smooth="yes"/>
      <point x="628" y="242" type="line" smooth="yes"/>
      <point x="628" y="132"/>
      <point x="531" y="35"/>
      <point x="432" y="35" type="curve" smooth="yes"/>
      <point x="319" y="35"/>
      <point x="217" y="124"/>
      <point x="217" y="242" type="curve" smooth="yes"/>
      <point x="217" y="584" type="line" smooth="yes"/>
      <point x="217" y="613"/>
      <point x="243" y="634"/>
      <point x="286" y="642" type="curve"/>
      <point x="286" y="660" type="line" smooth="yes"/>
      <point x="48" y="660" type="line" smooth="yes"/>
      <point x="48" y="642" type="line"/>
      <point x="91" y="634"/>
      <point x="117" y="613"/>
      <point x="117" y="584" type="curve" smooth="yes"/>
      <point x="117" y="224" type="line" smooth="yes"/>
      <point x="117" y="82"/>
      <point x="252" y="-12"/>
    </contour>
  </outline>
</glyph>
<glyph name="V" format="1">
  <advance width="800"/>
  <unicode hex="0056"/>
  <outline>
    <contour>
      <point x="434" y="100" type="line"/>
      <point x="224.0" y="585.0" type="line" smooth="yes"/>
      <point x="210.0" y="618.0"/>
      <point x="242.0" y="634.0"/>
      <point x="284.0" y="642.0" type="curve"/>
      <point x="284.0" y="660.0" type="line" smooth="yes"/>
      <point x="37.0" y="660.0" type="line" smooth="yes"/>
      <point x="37.0" y="642.0" type="line"/>
      <point x="87.0" y="632.0"/>
      <point x="104.0" y="615.0"/>
      <point x="117.0" y="585.0" type="curve" smooth="yes"/>
      <point x="369" y="0" type="line"/>
      <point x="416" y="0" type="line" smooth="yes"/>
      <point x="667.0" y="585.0" type="line" smooth="yes"/>
      <point x="681.0" y="618.0"/>
      <point x="722.0" y="636.0"/>
      <point x="761.0" y="642.0" type="curve"/>
      <point x="761.0" y="660.0" type="line" smooth="yes"/>
      <point x="553.0" y="660.0" type="line" smooth="yes"/>
      <point x="553.0" y="642.0" type="line"/>
      <point x="598.0" y="636.0"/>
      <point x="623.0" y="617.0"/>
      <point x="609.0" y="585.0" type="curve" smooth="yes"/>
      <point x="402" y="100" type="line"/>
    </contour>
  </outline>
</glyph>
<glyph name="W" format="1">
  <advance width="800"/>
  <unicode hex="0057"/>
  <outline>
    <contour>
      <point x="392" y="472" type="line"/>
      <point x="502" y="-12" type="line"/>
      <point x="581" y="-12" type="line"/>
      <point x="715.0" y="582.0" type="line" smooth="yes"/>
      <point x="724.0" y="622.0"/>
      <point x="756.0" y="636.0"/>
      <point x="800.0" y="642.0" type="curve"/>
      <point x="800.0" y="660.0" type="line" smooth="yes"/>
      <point x="636.0" y="660.0" type="line" smooth="yes"/>
      <point x="636.0" y="642.0" type="line"/>
      <point x="667.0" y="637.0"/>
      <point x="677.0" y="621.0"/>
      <point x="668.0" y="582.0" type="curve" smooth="yes"/>
      <point x="555.0" y="83.0" type="line"/>
      <point x="575.0" y="83.0" type="line"/>
      <point x="465" y="569" type="line"/>
      <point x="386" y="569" type="line"/>
      <point x="275.0" y="82.0" type="line"/>
      <point x="296.0" y="82.0" type="line"/>
      <point x="180.0" y="586.0" type="line" smooth="yes"/>
      <point x="171.0" y="627.0"/>
      <point x="182.0" y="643.0"/>
      <point x="222.0" y="643.0" type="curve"/>
      <point x="222.0" y="660.0" type="line" smooth="yes"/>
      <point x="0.0" y="660.0" type="line" smooth="yes"/>
      <point x="0.0" y="642.0" type="line"/>
      <point x="47.0" y="640.0"/>
      <point x="74.0" y="633.0"/>
      <point x="85.0" y="586.0" type="curve" smooth="yes"/>
      <point x="222" y="-12" type="line"/>
      <point x="302" y="-12" type="line"/>
      <point x="412" y="472" type="line"/>
    </contour>
  </outline>
</glyph>
<glyph name="X" format="1">
  <advance width="800"/>
  <unicode hex="0058"/>
  <outline>
    <contour>
      <point x="536" y="75" type="line" smooth="yes"/>
      <point x="572" y="28"/>
      <point x="553" y="17"/>
      <point x="504" y="17" type="curve"/>
      <point x="504" y="0" type="line" smooth="yes"/>
      <point x="760" y="0" type="line" smooth="yes"/>
      <point x="760" y="18" type="line"/>
      <point x="713" y="20"/>
      <point x="679" y="40"/>
      <point x="652" y="75" type="curve" smooth="yes"/>
      <point x="264" y="585" type="line" smooth="yes"/>
      <point x="228" y="632"/>
      <point x="247" y="643"/>
      <point x="296" y="643" type="curve"/>
      <point x="296" y="660" type="line" smooth="yes"/>
      <point x="40" y="660" type="line" smooth="yes"/>
      <point x="40" y="642" type="line"/>
      <point x="87" y="640"/>
      <point x="121" y="620"/>
      <point x="148" y="585" type="curve" smooth="yes"/>
    </contour>
    <contour>
      <point x="144" y="75" type="line" smooth="yes"/>
      <point x="115" y="39"/>
      <point x="79" y="24"/>
      <point x="40" y="18" type="curve"/>
      <point x="40" y="0" type="line" smooth="yes"/>
      <point x="240" y="0" type="line" smooth="yes"/>
      <point x="240" y="18" type="line"/>
      <point x="195" y="24"/>
      <point x="175" y="39"/>
      <point x="204" y="75" type="curve" smooth="yes"/>
      <point x="396" y="316" type="line" smooth="yes"/>
      <point x="359" y="337" type="line" smooth="yes"/>
    </contour>
    <contour>
      <point x="656" y="585" type="line" smooth="yes"/>
      <point x="685" y="621"/>
      <point x="721" y="636"/>
      <point x="760" y="642" type="curve"/>
      <point x="760" y="660" type="line" smooth="yes"/>
      <point x="560" y="660" type="line" smooth="yes"/>
      <point x="560" y="642" type="line"/>
      <point x="605" y="636"/>
      <point x="625" y="622"/>
      <point x="596" y="585" type="curve" smooth="yes"/>
      <point x="404" y="344" type="line" smooth="yes"/>
      <point x="441" y="323" type="line" smooth="yes"/>
    </contour>
  </outline>
</glyph>
<glyph name="Y" format="1">
  <advance width="800"/>
  <unicode hex="0059"/>
  <outline>
    <contour>
      <point x="281" y="18" type="curve"/>
      <point x="281" y="0" type="line" smooth="yes"/>
      <point x="519" y="0" type="line" smooth="yes"/>
      <point x="519" y="18" type="line"/>
      <point x="476" y="26"/>
      <point x="450" y="47"/>
      <point x="450" y="76" type="curve" smooth="yes"/>
      <point x="450" y="245" type="line" smooth="yes"/>
      <point x="450" y="281"/>
      <point x="464" y="313"/>
      <point x="485" y="344" type="curve" smooth="yes"/>
      <point x="652" y="585" type="line" smooth="yes"/>
      <point x="678" y="623"/>
      <point x="727" y="636"/>
      <point x="766" y="642" type="curve"/>
      <point x="766" y="660" type="line"/>
      <point x="562" y="660" type="line"/>
      <point x="562" y="642" type="line"/>
      <point x="607" y="636"/>
      <point x="621" y="621"/>
      <point x="597" y="585" type="curve" smooth="yes"/>
      <point x="423" y="329" type="line"/>
      <point x="241" y="585" type="line" smooth="yes"/>
      <point x="207" y="633"/>
      <point x="224" y="643"/>
      <point x="273" y="643" type="curve"/>
      <point x="273" y="660" type="line"/>
      <point x="34" y="660" type="line"/>
      <point x="34" y="642" type="line"/>
      <point x="81" y="640"/>
      <point x="117" y="621"/>
      <point x="142" y="585" type="curve" smooth="yes"/>
      <point x="307" y="349" type="line" smooth="yes"/>
      <point x="330" y="316"/>
      <point x="350" y="279"/>
      <point x="350" y="238" type="curve" smooth="yes"/>
      <point x="350" y="76" type="line" smooth="yes"/>
      <point x="350" y="47"/>
      <point x="324" y="26"/>
    </contour>
  </outline>
</glyph>
<glyph name="Z" format="1">
  <advance width="800"/>
  <unicode hex="005A"/>
  <outline>
    <contour>
      <point x="178" y="25" type="line"/>
      <point x="686" y="623" type="line" smooth="yes"/>
      <point x="686" y="660" type="line"/>
      <point x="110" y="660" type="line" smooth="yes"/>
      <point x="72" y="516" type="line" smooth="yes"/>
      <point x="108" y="516" type="line"/>
      <point x="132" y="592"/>
      <point x="174" y="618"/>
      <point x="299" y="618" type="curve"/>
      <point x="593" y="618" type="line"/>
      <point x="579" y="640" type="line"/>
      <point x="66" y="37" type="line" smooth="yes"/>
      <point x="66" y="0" type="line"/>
      <point x="688" y="0" type="line" smooth="yes"/>
      <point x="740" y="184" type="line" smooth="yes"/>
      <point x="704" y="184" type="line"/>
      <point x="675" y="73"/>
      <point x="592" y="43"/>
      <point x="499" y="43" type="curve"/>
      <point x="168" y="43" type="line"/>
    </contour>
  </outline>
</glyph>
<glyph name="asciicircum" format="1">
  <advance width="800"/>
  <unicode hex="005E"/>
  <outline>
    <contour>
      <point x="400" y="617" type="line" smooth="yes"/>
      <point x="620.0" y="250.0" type="line"/>
      <point x="700.0" y="250.0" type="line" smooth="yes"/>
      <point x="400.0" y="750.0" type="line" smooth="yes"/>
      <point x="100.0" y="250.0" type="line" smooth="yes"/>
      <point x="180.0" y="250.0" type="line"/>
    </contour>
  </outline>
</glyph>
<glyph name="grave" format="1">
  <advance width="800"/>
  <unicode hex="0060"/>
  <outline>
    <contour>
      <point x="390" y="677" type="line"/>
      <point x="370" y="696"/>
      <point x="338" y="696"/>
      <point x="317" y="676" type="curve" smooth="yes"/>
      <point x="297" y="656"/>
      <point x="294" y="620"/>
      <point x="317" y="604" type="curve" smooth="yes"/>
      <point x="474" y="493" type="line" smooth="yes"/>
      <point x="500" y="519" type="line" smooth="yes"/>
    </contour>
  </outline>
</glyph>
<glyph name="a" format="1">
  <advance width="800"/>
  <unicode hex="0061"/>
  <outline>
    <contour>
      <point x="545" y="122" type="line"/>
      <point x="477" y="72"/>
      <point x="372" y="32"/>
      <point x="310" y="32" type="curve" smooth="yes"/>
      <point x="262" y="32"/>
      <point x="223" y="66"/>
      <point x="223" y="107" type="curve" smooth="yes"/>
      <point x="223" y="157"/>
      <point x="256" y="192"/>
      <point x="310" y="214" type="curve" smooth="yes"/>
      <point x="378" y="241"/>
      <point x="476" y="255"/>
      <point x="545" y="281" type="curve"/>
      <point x="545" y="314" type="line"/>
      <point x="469" y="289"/>
      <point x="395" y="274"/>
      <point x="296" y="254" type="curve" smooth="yes"/>
      <point x="185" y="231"/>
      <point x="106" y="166"/>
      <point x="106" y="96" type="curve" smooth="yes"/>
      <point x="106" y="36"/>
      <point x="185" y="-12"/>
      <point x="282" y="-12" type="curve" smooth="yes"/>
      <point x="366" y="-12"/>
      <point x="483" y="35"/>
      <point x="545" y="92" type="curve"/>
    </contour>
    <contour>
      <point x="350" y="476" type="curve" smooth="yes"/>
      <point x="472" y="476"/>
      <point x="534" y="424"/>
      <point x="534" y="316" type="curve" smooth="yes"/>
      <point x="534" y="77" type="line" smooth="yes"/>
      <point x="534" y="28"/>
      <point x="576" y="-12"/>
      <point x="627" y="-12" type="curve" smooth="yes"/>
      <point x="675" y="-12"/>
      <point x="697" y="5"/>
      <point x="720" y="30" type="curve"/>
      <point x="704" y="47" type="line"/>
      <point x="686" y="36"/>
      <point x="677" y="28"/>
      <point x="661" y="28" type="curve" smooth="yes"/>
      <point x="640" y="28"/>
      <point x="622" y="45"/>
      <point x="622" y="82" type="curve" smooth="yes"/>
      <point x="622" y="316" type="line" smooth="yes"/>
      <point x="622" y="455"/>
      <point x="550" y="511"/>
      <point x="387" y="511" type="curve" smooth="yes"/>
      <point x="249" y="511"/>
      <point x="151" y="426"/>
      <point x="151" y="373" type="curve" smooth="yes"/>
      <point x="151" y="335"/>
      <point x="180" y="316"/>
      <point x="206" y="316" type="curve" smooth="yes"/>
      <point x="239" y="316"/>
      <point x="260" y="337"/>
      <point x="260" y="361" type="curve" smooth="yes"/>
      <point x="260" y="384"/>
      <point x="241" y="393"/>
      <point x="241" y="412" type="curve" smooth="yes"/>
      <point x="241" y="443"/>
      <point x="309" y="476"/>
    </contour>
  </outline>
</glyph>
<glyph name="b" format="1">
  <advance width="800"/>
  <unicode hex="0062"/>
  <outline>
    <contour>
      <point x="87" y="0" type="line"/>
      <point x="87" y="18" type="line"/>
      <point x="130" y="26"/>
      <point x="156" y="47"/>
      <point x="156" y="76" type="curve" smooth="yes"/>
      <point x="156" y="662" type="line" smooth="yes"/>
      <point x="156" y="691"/>
      <point x="130" y="712"/>
      <point x="87" y="720" type="curve"/>
      <point x="87" y="738" type="line"/>
      <point x="224" y="738" type="line" smooth="yes"/>
      <point x="235" y="738"/>
      <point x="244" y="729"/>
      <point x="244" y="718" type="curve" smooth="yes"/>
      <point x="244" y="76" type="line" smooth="yes"/>
      <point x="244" y="48"/>
      <point x="210" y="0"/>
      <point x="156" y="0" type="curve" smooth="yes"/>
    </contour>
    <contour>
      <point x="230.0" y="422.0" type="line"/>
      <point x="289.0" y="481.0"/>
      <point x="376.0" y="512.0"/>
      <point x="460.0" y="512.0" type="curve" smooth="yes"/>
      <point x="633.0" y="512.0"/>
      <point x="714.0" y="398.0"/>
      <point x="714.0" y="278.0" type="curve" smooth="yes"/>
      <point x="714.0" y="139.0"/>
      <point x="607.0" y="-12.0"/>
      <point x="409.0" y="-12.0" type="curve" smooth="yes"/>
      <point x="339.0" y="-12.0"/>
      <point x="272.0" y="12.0"/>
      <point x="224.0" y="61.0" type="curve"/>
      <point x="236.0" y="127.0" type="line"/>
      <point x="275.0" y="59.0"/>
      <point x="346.0" y="24.0"/>
      <point x="417.0" y="24.0" type="curve" smooth="yes"/>
      <point x="556.0" y="24.0"/>
      <point x="626.0" y="135.0"/>
      <point x="626.0" y="244.0" type="curve" smooth="yes"/>
      <point x="626.0" y="353.0"/>
      <point x="555.0" y="464.0"/>
      <point x="410.0" y="464.0" type="curve" smooth="yes"/>
      <point x="332.0" y="464.0"/>
      <point x="259.0" y="427.0"/>
      <point x="237.0" y="364.0" type="curve"/>
    </contour>
  </outline>
</glyph>
<glyph name="c" format="1">
  <advance width="800"/>
  <unicode hex="0063"/>
  <outline>
    <contour>
      <point x="429" y="23" type="curve" smooth="yes"/>
      <point x="302" y="23"/>
      <point x="215" y="108"/>
      <point x="215" y="264" type="curve" smooth="yes"/>
      <point x="215" y="386"/>
      <point x="310" y="479"/>
      <point x="436" y="479" type="curve" smooth="yes"/>
      <point x="503" y="479"/>
      <point x="570" y="446"/>
      <point x="570" y="413" type="curve" smooth="yes"/>
      <point x="570" y="398"/>
      <point x="555" y="391"/>
      <point x="555" y="368" type="curve" smooth="yes"/>
      <point x="555" y="341"/>
      <point x="583" y="319"/>
      <point x="608" y="319" type="curve" smooth="yes"/>
      <point x="655" y="319"/>
      <point x="676" y="347"/>
      <point x="676" y="376" type="curve" smooth="yes"/>
      <point x="676" y="444"/>
      <point x="569" y="511"/>
      <point x="458" y="511" type="curve" smooth="yes"/>
      <point x="275" y="511"/>
      <point x="115" y="415"/>
      <point x="115" y="233" type="curve" smooth="yes"/>
      <point x="115" y="101"/>
      <point x="245" y="-12"/>
      <point x="399" y="-12" type="curve" smooth="yes"/>
      <point x="513" y="-12"/>
      <point x="603" y="25"/>
      <point x="678" y="112" type="curve" smooth="yes"/>
      <point x="695" y="132"/>
      <point x="613" y="147"/>
      <point x="591" y="115" type="curve" smooth="yes"/>
      <point x="551" y="55"/>
      <point x="475" y="23"/>
    </contour>
  </outline>
</glyph>
<glyph name="d" format="1">
  <advance width="800"/>
  <unicode hex="0064"/>
  <outline>
    <contour>
      <point x="557" y="76" type="curve" smooth="yes"/>
      <point x="557" y="662" type="line" smooth="yes"/>
      <point x="557" y="691"/>
      <point x="531" y="712"/>
      <point x="488" y="720" type="curve"/>
      <point x="488" y="738" type="line"/>
      <point x="625" y="738" type="line" smooth="yes"/>
      <point x="636" y="738"/>
      <point x="645" y="729"/>
      <point x="645" y="718" type="curve" smooth="yes"/>
      <point x="645" y="76" type="line" smooth="yes"/>
      <point x="645" y="47"/>
      <point x="671" y="26"/>
      <point x="714" y="18" type="curve"/>
      <point x="714" y="0" type="line"/>
      <point x="645" y="0" type="line" smooth="yes"/>
      <point x="591" y="0"/>
      <point x="557" y="48"/>
    </contour>
    <contour>
      <point x="565.0" y="127.0" type="curve"/>
      <point x="570.0" y="68.0" type="line"/>
      <point x="518.0" y="14.0"/>
      <point x="444.0" y="-12.0"/>
      <point x="369.0" y="-12.0" type="curve" smooth="yes"/>
      <point x="229.0" y="-12.0"/>
      <point x="86.0" y="81.0"/>
      <point x="86.0" y="253.0" type="curve" smooth="yes"/>
      <point x="86.0" y="427.0"/>
      <point x="227" y="512"/>
      <point x="367" y="512" type="curve" smooth="yes"/>
      <point x="447" y="512"/>
      <point x="526.0" y="485.0"/>
      <point x="579.0" y="432.0" type="curve"/>
      <point x="566.0" y="354.0" type="line"/>
      <point x="531.0" y="433.0"/>
      <point x="456.0" y="474.0"/>
      <point x="380.0" y="474.0" type="curve" smooth="yes"/>
      <point x="276.0" y="474.0"/>
      <point x="175.0" y="400.0"/>
      <point x="175.0" y="250.0" type="curve" smooth="yes"/>
      <point x="175.0" y="85.0"/>
      <point x="278.0" y="22.0"/>
      <point x="379.0" y="22.0" type="curve" smooth="yes"/>
      <point x="461.0" y="22.0"/>
      <point x="543.0" y="64.0"/>
    </contour>
  </outline>
</glyph>
<glyph name="f" format="1">
  <advance width="800"/>
  <unicode hex="0066"/>
  <outline>
    <contour>
      <point x="590" y="409" type="line"/>
      <point x="590" y="457" type="line"/>
      <point x="184" y="457" type="line"/>
      <point x="184" y="409" type="line"/>
    </contour>
    <contour>
      <point x="392" y="76" type="curve" smooth="yes"/>
      <point x="392" y="501" type="line" smooth="yes"/>
      <point x="392" y="653"/>
      <point x="463" y="711"/>
      <point x="548" y="711" type="curve" smooth="yes"/>
      <point x="603" y="711"/>
      <point x="608" y="694"/>
      <point x="608" y="665" type="curve" smooth="yes"/>
      <point x="608" y="636"/>
      <point x="635" y="614"/>
      <point x="659" y="614" type="curve" smooth="yes"/>
      <point x="690" y="614"/>
      <point x="711" y="641"/>
      <point x="711" y="667" type="curve" smooth="yes"/>
      <point x="711" y="712"/>
      <point x="644" y="750"/>
      <point x="568" y="750" type="curve" smooth="yes"/>
      <point x="417" y="750"/>
      <point x="304" y="652"/>
      <point x="304" y="501" type="curve" smooth="yes"/>
      <point x="304" y="76" type="line" smooth="yes"/>
      <point x="304" y="28"/>
      <point x="241" y="24"/>
      <point x="193" y="18" type="curve"/>
      <point x="193" y="0" type="line"/>
      <point x="503" y="0" type="line"/>
      <point x="503" y="18" type="line"/>
      <point x="455" y="24"/>
      <point x="392" y="28"/>
    </contour>
  </outline>
</glyph>
<glyph name="g" format="1">
  <advance width="800"/>
  <unicode hex="0067"/>
  <outline>
    <contour>
      <point x="396" y="512" type="curve" smooth="yes"/>
      <point x="233" y="512"/>
      <point x="134" y="440"/>
      <point x="134" y="332" type="curve" smooth="yes"/>
      <point x="134" y="246"/>
      <point x="219" y="178"/>
      <point x="342" y="178" type="curve" smooth="yes"/>
      <point x="471" y="178"/>
      <point x="604" y="232"/>
      <point x="604" y="362" type="curve" smooth="yes"/>
      <point x="604" y="440"/>
      <point x="495" y="512"/>
    </contour>
    <contour>
      <point x="560" y="447" type="line"/>
      <point x="488" y="527"/>
      <point x="543" y="582"/>
      <point x="579" y="582" type="curve" smooth="yes"/>
      <point x="585" y="582"/>
      <point x="593" y="580"/>
      <point x="596" y="577" type="curve" smooth="yes"/>
      <point x="615" y="557"/>
      <point x="589" y="555"/>
      <point x="589" y="526" type="curve" smooth="yes"/>
      <point x="589" y="508"/>
      <point x="631" y="491"/>
      <point x="660" y="491" type="curve" smooth="yes"/>
      <point x="687" y="491"/>
      <point x="700" y="511"/>
      <point x="700" y="531" type="curve" smooth="yes"/>
      <point x="700" y="583"/>
      <point x="641" y="607"/>
      <point x="582" y="607" type="curve" smooth="yes"/>
      <point x="518" y="607"/>
      <point x="441" y="540"/>
      <point x="512" y="457" type="curve"/>
    </contour>
    <contour>
      <point x="305" y="213" type="line"/>
      <point x="253" y="204"/>
      <point x="156" y="162"/>
      <point x="156" y="110" type="curve" smooth="yes"/>
      <point x="156.0" y="27.449438202247194"/>
      <point x="296" y="31"/>
      <point x="420" y="17" type="curve" smooth="yes"/>
      <point x="516" y="6"/>
      <point x="602.0" y="-14.852173913043472"/>
      <point x="602" y="-94" type="curve" smooth="yes"/>
      <point x="602" y="-172"/>
      <point x="500" y="-213"/>
      <point x="395" y="-213" type="curve" smooth="yes"/>
      <point x="249" y="-213"/>
      <point x="166" y="-143"/>
      <point x="166" y="-73" type="curve" smooth="yes"/>
      <point x="166" y="-18"/>
      <point x="218" y="36"/>
      <point x="331" y="55" type="curve"/>
      <point x="331" y="73" type="line"/>
      <point x="168" y="56"/>
      <point x="83" y="-25"/>
      <point x="83" y="-101" type="curve" smooth="yes"/>
      <point x="83" y="-177"/>
      <point x="167" y="-249"/>
      <point x="344" y="-249" type="curve" smooth="yes"/>
      <point x="505" y="-249"/>
      <point x="682" y="-182"/>
      <point x="682" y="-66" type="curve" smooth="yes"/>
      <point x="682.0" y="35.26717557251909"/>
      <point x="546" y="55"/>
      <point x="422" y="68" type="curve" smooth="yes"/>
      <point x="320" y="79"/>
      <point x="227.0" y="85.11475409836066"/>
      <point x="227" y="126" type="curve" smooth="yes"/>
      <point x="227" y="152"/>
      <point x="267" y="184"/>
      <point x="305" y="189" type="curve"/>
    </contour>
    <contour>
      <point x="407" y="214" type="curve" smooth="yes"/>
      <point x="307" y="214"/>
      <point x="212" y="258"/>
      <point x="212" y="358" type="curve" smooth="yes"/>
      <point x="212" y="432"/>
      <point x="265" y="477"/>
      <point x="339" y="477" type="curve" smooth="yes"/>
      <point x="439" y="477"/>
      <point x="534" y="433"/>
      <point x="534" y="333" type="curve" smooth="yes"/>
      <point x="534" y="259"/>
      <point x="481" y="214"/>
    </contour>
  </outline>
</glyph>
<glyph name="h" format="1">
  <advance width="800"/>
  <unicode hex="0068"/>
  <outline>
    <contour>
      <point x="90" y="0" type="move" smooth="yes"/>
      <point x="90" y="18" type="line"/>
      <point x="133" y="26"/>
      <point x="159" y="47"/>
      <point x="159" y="76" type="curve" smooth="yes"/>
      <point x="159" y="662" type="line" smooth="yes"/>
      <point x="159" y="691"/>
      <point x="133" y="712"/>
      <point x="90" y="720" type="curve"/>
      <point x="90" y="738" type="line"/>
      <point x="227" y="738" type="line" smooth="yes"/>
      <point x="238" y="738"/>
      <point x="247" y="729"/>
      <point x="247" y="718" type="curve" smooth="yes"/>
      <point x="247" y="76" type="line" smooth="yes"/>
      <point x="247" y="47"/>
      <point x="273" y="26"/>
      <point x="316" y="18" type="curve"/>
      <point x="316" y="0" type="line"/>
    </contour>
    <contour>
      <point x="484" y="0" type="line"/>
      <point x="484" y="18" type="line"/>
      <point x="527" y="26"/>
      <point x="553" y="47"/>
      <point x="553" y="76" type="curve" smooth="yes"/>
      <point x="553" y="363" type="line" smooth="yes"/>
      <point x="553" y="434"/>
      <point x="507" y="463"/>
      <point x="455" y="463" type="curve" smooth="yes"/>
      <point x="386" y="463"/>
      <point x="275" y="396"/>
      <point x="238" y="280" type="curve"/>
      <point x="238" y="379" type="line"/>
      <point x="313" y="459"/>
      <point x="406" y="511"/>
      <point x="487" y="511" type="curve" smooth="yes"/>
      <point x="578" y="511"/>
      <point x="641" y="466"/>
      <point x="641" y="363" type="curve" smooth="yes"/>
      <point x="641" y="76" type="line" smooth="yes"/>
      <point x="641" y="47"/>
      <point x="667" y="26"/>
      <point x="710" y="18" type="curve"/>
      <point x="710" y="0" type="line"/>
    </contour>
  </outline>
</glyph>
<glyph name="i" format="1">
  <advance width="800"/>
  <unicode hex="0069"/>
  <outline>
    <contour>
      <point x="463" y="688" type="curve" smooth="yes"/>
      <point x="463" y="655"/>
      <point x="436" y="628"/>
      <point x="403" y="628" type="curve" smooth="yes"/>
      <point x="370" y="628"/>
      <point x="343" y="655"/>
      <point x="343" y="688" type="curve" smooth="yes"/>
      <point x="343" y="721"/>
      <point x="370" y="748"/>
      <point x="403" y="748" type="curve" smooth="yes"/>
      <point x="436" y="748"/>
      <point x="463" y="721"/>
    </contour>
    <contour>
      <point x="444" y="103" type="curve" smooth="yes"/>
      <point x="444" y="472" type="line" smooth="yes"/>
      <point x="444" y="493"/>
      <point x="425" y="512"/>
      <point x="404" y="512" type="curve" smooth="yes"/>
      <point x="375" y="512" type="line" smooth="yes"/>
      <point x="261" y="512"/>
      <point x="114" y="440"/>
      <point x="114" y="377" type="curve" smooth="yes"/>
      <point x="114" y="349"/>
      <point x="131" y="328"/>
      <point x="161" y="328" type="curve" smooth="yes"/>
      <point x="183" y="328"/>
      <point x="211" y="347"/>
      <point x="211" y="371" type="curve" smooth="yes"/>
      <point x="211" y="439"/>
      <point x="255" y="476"/>
      <point x="333" y="476" type="curve" smooth="yes"/>
      <point x="347" y="476"/>
      <point x="356" y="472"/>
      <point x="356" y="456" type="curve" smooth="yes"/>
      <point x="356" y="103" type="line" smooth="yes"/>
      <point x="356" y="74"/>
      <point x="330" y="53"/>
      <point x="287" y="45" type="curve"/>
      <point x="131" y="45" type="line"/>
      <point x="131" y="0" type="line"/>
      <point x="669" y="0" type="line"/>
      <point x="669" y="45" type="line"/>
      <point x="513" y="45" type="line"/>
      <point x="470" y="53"/>
      <point x="444" y="74"/>
    </contour>
  </outline>
</glyph>
<glyph name="j" format="1">
  <advance width="800"/>
  <unicode hex="006A"/>
  <outline>
    <contour>
      <point x="568" y="688" type="curve" smooth="yes"/>
      <point x="568" y="655"/>
      <point x="541" y="628"/>
      <point x="508" y="628" type="curve" smooth="yes"/>
      <point x="475" y="628"/>
      <point x="448" y="655"/>
      <point x="448" y="688" type="curve" smooth="yes"/>
      <point x="448" y="721"/>
      <point x="475" y="748"/>
      <point x="508" y="748" type="curve" smooth="yes"/>
      <point x="541" y="748"/>
      <point x="568" y="721"/>
    </contour>
    <contour>
      <point x="467" y="457" type="curve" smooth="yes"/>
      <point x="467" y="0" type="line" smooth="yes"/>
      <point x="467" y="-118"/>
      <point x="396" y="-192"/>
      <point x="340" y="-192" type="curve" smooth="yes"/>
      <point x="312" y="-192"/>
      <point x="268" y="-166"/>
      <point x="244" y="-143" type="curve" smooth="yes"/>
      <point x="214" y="-115"/>
      <point x="118" y="-144"/>
      <point x="146" y="-178" type="curve" smooth="yes"/>
      <point x="175" y="-214"/>
      <point x="245" y="-238"/>
      <point x="321" y="-238" type="curve" smooth="yes"/>
      <point x="434" y="-238"/>
      <point x="555" y="-115"/>
      <point x="555" y="0" type="curve" smooth="yes"/>
      <point x="555" y="473" type="line" smooth="yes"/>
      <point x="555" y="494"/>
      <point x="536" y="513"/>
      <point x="515" y="513" type="curve" smooth="yes"/>
      <point x="486" y="513" type="line" smooth="yes"/>
      <point x="372" y="513"/>
      <point x="224" y="441"/>
      <point x="224" y="378" type="curve" smooth="yes"/>
      <point x="224" y="350"/>
      <point x="241" y="329"/>
      <point x="271" y="329" type="curve" smooth="yes"/>
      <point x="293" y="329"/>
      <point x="321" y="348"/>
      <point x="321" y="372" type="curve" smooth="yes"/>
      <point x="321" y="440"/>
      <point x="365" y="477"/>
      <point x="443" y="477" type="curve" smooth="yes"/>
      <point x="457" y="477"/>
      <point x="467" y="473"/>
    </contour>
  </outline>
</glyph>
<glyph name="k" format="1">
  <advance width="800"/>
  <unicode hex="006B"/>
  <outline>
    <contour>
      <point x="303" y="295" type="line"/>
      <point x="501" y="75" type="line" smooth="yes"/>
      <point x="534" y="39"/>
      <point x="511" y="17"/>
      <point x="469" y="17" type="curve"/>
      <point x="469" y="0" type="line" smooth="yes"/>
      <point x="732" y="0" type="line" smooth="yes"/>
      <point x="732" y="18" type="line"/>
      <point x="689" y="20"/>
      <point x="633" y="45"/>
      <point x="605" y="75" type="curve" smooth="yes"/>
      <point x="374" y="328" type="line"/>
    </contour>
    <contour>
      <point x="238" y="226" type="line"/>
      <point x="549" y="432" type="line" smooth="yes"/>
      <point x="586" y="456"/>
      <point x="622" y="476"/>
      <point x="663" y="482" type="curve"/>
      <point x="663" y="500" type="line" smooth="yes"/>
      <point x="452" y="500" type="line" smooth="yes"/>
      <point x="451" y="482" type="line"/>
      <point x="509" y="475"/>
      <point x="524" y="457"/>
      <point x="487" y="432" type="curve" smooth="yes"/>
      <point x="177" y="226" type="line"/>
    </contour>
    <contour>
      <point x="318" y="0" type="move"/>
      <point x="318" y="18" type="line"/>
      <point x="275" y="26"/>
      <point x="249" y="47"/>
      <point x="249" y="76" type="curve" smooth="yes"/>
      <point x="249" y="718" type="line" smooth="yes"/>
      <point x="249" y="729"/>
      <point x="240" y="738"/>
      <point x="229" y="738" type="curve" smooth="yes"/>
      <point x="92" y="738" type="line"/>
      <point x="92" y="720" type="line"/>
      <point x="135" y="712"/>
      <point x="161" y="691"/>
      <point x="161" y="662" type="curve"/>
      <point x="161" y="76" type="line" smooth="yes"/>
      <point x="161" y="47"/>
      <point x="135" y="26"/>
      <point x="92" y="18" type="curve"/>
      <point x="92" y="0" type="line" smooth="yes"/>
    </contour>
  </outline>
</glyph>
<glyph name="n" format="1">
  <advance width="800"/>
  <unicode hex="006E"/>
  <outline>
    <contour>
      <point x="90" y="0" type="move" smooth="yes"/>
      <point x="90" y="18" type="line"/>
      <point x="133" y="26"/>
      <point x="159" y="47"/>
      <point x="159" y="76" type="curve" smooth="yes"/>
      <point x="159" y="424" type="line"/>
      <point x="159" y="453"/>
      <point x="133" y="474"/>
      <point x="90" y="482" type="curve"/>
      <point x="90" y="500" type="line"/>
      <point x="227" y="500" type="line" smooth="yes"/>
      <point x="238" y="500"/>
      <point x="247" y="491"/>
      <point x="247" y="480" type="curve" smooth="yes"/>
      <point x="247" y="76" type="line" smooth="yes"/>
      <point x="247" y="47"/>
      <point x="273" y="26"/>
      <point x="316" y="18" type="curve"/>
      <point x="316" y="0" type="line"/>
    </contour>
    <contour>
      <point x="484" y="0" type="line"/>
      <point x="484" y="18" type="line"/>
      <point x="527" y="26"/>
      <point x="553" y="47"/>
      <point x="553" y="76" type="curve" smooth="yes"/>
      <point x="553" y="363" type="line" smooth="yes"/>
      <point x="553" y="434"/>
      <point x="507" y="463"/>
      <point x="455" y="463" type="curve" smooth="yes"/>
      <point x="386.0" y="463.0"/>
      <point x="275" y="396"/>
      <point x="238" y="280" type="curve"/>
      <point x="238" y="379" type="line"/>
      <point x="313" y="459"/>
      <point x="406.0" y="511.0"/>
      <point x="487" y="511" type="curve" smooth="yes"/>
      <point x="578" y="511"/>
      <point x="641" y="466"/>
      <point x="641" y="363" type="curve" smooth="yes"/>
      <point x="641" y="76" type="line" smooth="yes"/>
      <point x="641" y="47"/>
      <point x="667" y="26"/>
      <point x="710" y="18" type="curve"/>
      <point x="710" y="0" type="line"/>
    </contour>
  </outline>
</glyph>
<glyph name="p" format="1">
  <advance width="778"/>
  <unicode hex="0070"/>
  <outline>
    <contour>
      <point x="189" y="-219" type="curve" smooth="yes"/>
      <point x="189" y="488" type="line" smooth="yes"/>
      <point x="189" y="493"/>
      <point x="185" y="500"/>
      <point x="175" y="500" type="curve" smooth="yes"/>
      <point x="148" y="500"/>
      <point x="104" y="483"/>
      <point x="104" y="468" type="curve" smooth="yes"/>
      <point x="104" y="-240" type="line" smooth="yes"/>
      <point x="104" y="-244"/>
      <point x="110" y="-250"/>
      <point x="124" y="-250" type="curve" smooth="yes"/>
      <point x="148" y="-250"/>
      <point x="189" y="-234"/>
    </contour>
    <contour>
      <point x="104" y="-200" type="move"/>
      <point x="104" y="-211"/>
      <point x="90" y="-232"/>
      <point x="60" y="-232" type="curve"/>
      <point x="60" y="-250" type="line"/>
      <point x="233" y="-250" type="line"/>
      <point x="233" y="-232" type="line"/>
      <point x="203" y="-232"/>
      <point x="189" y="-211"/>
      <point x="189" y="-200" type="curve"/>
    </contour>
    <contour>
      <point x="175" y="500" type="move"/>
      <point x="60" y="500" type="line"/>
      <point x="60" y="482" type="line"/>
      <point x="90" y="482"/>
      <point x="104" y="461"/>
      <point x="104" y="450" type="curve"/>
    </contour>
    <contour>
      <point x="421" y="528" type="curve" smooth="yes"/>
      <point x="308" y="528"/>
      <point x="187" y="482"/>
      <point x="109" y="404" type="curve" smooth="yes"/>
      <point x="93" y="388"/>
      <point x="158" y="372"/>
      <point x="188" y="409" type="curve" smooth="yes"/>
      <point x="235" y="462"/>
      <point x="308" y="484"/>
      <point x="379" y="484" type="curve" smooth="yes"/>
      <point x="519" y="484"/>
      <point x="613" y="389"/>
      <point x="613" y="248" type="curve" smooth="yes"/>
      <point x="613" y="112"/>
      <point x="514" y="27"/>
      <point x="410" y="27" type="curve" smooth="yes"/>
      <point x="282" y="27"/>
      <point x="205" y="87"/>
      <point x="189" y="97" type="curve" smooth="yes"/>
      <point x="155" y="118"/>
      <point x="110" y="67"/>
      <point x="124" y="55" type="curve" smooth="yes"/>
      <point x="150" y="33"/>
      <point x="211" y="-18"/>
      <point x="363" y="-18" type="curve" smooth="yes"/>
      <point x="531" y="-18"/>
      <point x="698" y="93"/>
      <point x="698" y="277" type="curve" smooth="yes"/>
      <point x="698" y="416"/>
      <point x="603" y="528"/>
    </contour>
  </outline>
</glyph>
<glyph name="q" format="1">
  <advance width="800"/>
  <unicode hex="0071"/>
  <outline>
    <contour>
      <point x="488" y="-220" type="curve"/>
      <point x="488" y="-238" type="line" smooth="yes"/>
      <point x="714" y="-238" type="line" smooth="yes"/>
      <point x="714" y="-220" type="line"/>
      <point x="671" y="-212"/>
      <point x="645" y="-191"/>
      <point x="645" y="-162" type="curve" smooth="yes"/>
      <point x="645" y="436" type="line" smooth="yes"/>
      <point x="645" y="465"/>
      <point x="671" y="486"/>
      <point x="714" y="494" type="curve"/>
      <point x="714" y="512" type="line" smooth="yes"/>
      <point x="577" y="512" type="line" smooth="yes"/>
      <point x="566" y="512"/>
      <point x="557" y="503"/>
      <point x="557" y="492" type="curve" smooth="yes"/>
      <point x="557" y="-162" type="line" smooth="yes"/>
      <point x="557" y="-191"/>
      <point x="531" y="-212"/>
    </contour>
    <contour>
      <point x="561.0" y="365.0" type="curve"/>
      <point x="569.0" y="441.0" type="line"/>
      <point x="516.0" y="488.0"/>
      <point x="442" y="512"/>
      <point x="367" y="512" type="curve" smooth="yes"/>
      <point x="227" y="512"/>
      <point x="86.0" y="427.0"/>
      <point x="86.0" y="253.0" type="curve" smooth="yes"/>
      <point x="86.0" y="81.0"/>
      <point x="229.0" y="-12.0"/>
      <point x="369.0" y="-12.0" type="curve" smooth="yes"/>
      <point x="444.0" y="-12.0"/>
      <point x="518.0" y="14.0"/>
      <point x="571.0" y="69.0" type="curve"/>
      <point x="563.0" y="123.0" type="line"/>
      <point x="539.0" y="63.0"/>
      <point x="459.0" y="24.0"/>
      <point x="379.0" y="24.0" type="curve" smooth="yes"/>
      <point x="278.0" y="24.0"/>
      <point x="175.0" y="85.0"/>
      <point x="175.0" y="250.0" type="curve" smooth="yes"/>
      <point x="175.0" y="397.0"/>
      <point x="276.0" y="469.0"/>
      <point x="379.0" y="469.0" type="curve" smooth="yes"/>
      <point x="451.0" y="469.0"/>
      <point x="524.0" y="434.0"/>
    </contour>
  </outline>
</glyph>
<glyph name="r" format="1">
  <advance width="800"/>
  <unicode hex="0072"/>
  <outline>
    <contour>
      <point x="120" y="500" type="line" smooth="yes"/>
      <point x="120" y="482" type="line"/>
      <point x="163" y="474"/>
      <point x="189" y="453"/>
      <point x="189" y="424" type="curve" smooth="yes"/>
      <point x="189" y="75" type="line"/>
      <point x="189" y="46"/>
      <point x="163" y="26"/>
      <point x="120" y="18" type="curve"/>
      <point x="120" y="0" type="line" smooth="yes"/>
      <point x="346" y="0" type="line" smooth="yes"/>
      <point x="346" y="18" type="line"/>
      <point x="303" y="26"/>
      <point x="277" y="47"/>
      <point x="277" y="76" type="curve"/>
      <point x="277" y="480" type="line" smooth="yes"/>
      <point x="277" y="491"/>
      <point x="268" y="500"/>
      <point x="257" y="500" type="curve" smooth="yes"/>
    </contour>
    <contour>
      <point x="572" y="511" type="curve" smooth="yes"/>
      <point x="458" y="511"/>
      <point x="349" y="439"/>
      <point x="270" y="366" type="curve"/>
      <point x="270" y="289" type="line"/>
      <point x="317" y="376"/>
      <point x="427" y="467"/>
      <point x="530" y="467" type="curve" smooth="yes"/>
      <point x="564" y="467"/>
      <point x="572" y="447"/>
      <point x="572" y="440" type="curve" smooth="yes"/>
      <point x="572" y="430"/>
      <point x="561" y="424"/>
      <point x="561" y="398" type="curve" smooth="yes"/>
      <point x="561" y="365"/>
      <point x="597" y="347"/>
      <point x="625" y="347" type="curve" smooth="yes"/>
      <point x="663" y="347"/>
      <point x="698" y="382"/>
      <point x="698" y="411" type="curve" smooth="yes"/>
      <point x="698" y="471"/>
      <point x="642" y="511"/>
    </contour>
  </outline>
</glyph>
<glyph name="v" format="1">
  <advance width="800"/>
  <unicode hex="0076"/>
  <outline>
    <contour>
      <point x="433" y="45" type="line"/>
      <point x="279" y="425" type="line" smooth="yes"/>
      <point x="260" y="471"/>
      <point x="263.0" y="483.0"/>
      <point x="312.0" y="483.0" type="curve"/>
      <point x="312.0" y="500.0" type="line" smooth="yes"/>
      <point x="80.0" y="500.0" type="line" smooth="yes"/>
      <point x="80.0" y="482.0" type="line"/>
      <point x="127.0" y="480.0"/>
      <point x="169.0" y="471.0"/>
      <point x="188.0" y="425.0" type="curve" smooth="yes"/>
      <point x="365" y="-12" type="line" smooth="yes"/>
      <point x="436" y="-12" type="line" smooth="yes"/>
      <point x="606.0" y="425.0" type="line" smooth="yes"/>
      <point x="622.0" y="465.0"/>
      <point x="681.0" y="476.0"/>
      <point x="720.0" y="482.0" type="curve"/>
      <point x="720.0" y="500.0" type="line" smooth="yes"/>
      <point x="526.0" y="500.0" type="line" smooth="yes"/>
      <point x="526.0" y="482.0" type="line"/>
      <point x="571.0" y="476.0"/>
      <point x="578.0" y="467.0"/>
      <point x="562.0" y="425.0" type="curve" smooth="yes"/>
      <point x="416" y="46" type="line"/>
    </contour>
  </outline>
</glyph>
<glyph name="w" format="1">
  <advance width="800"/>
  <unicode hex="0077"/>
  <outline>
    <contour>
      <point x="585" y="35" type="line"/>
      <point x="449" y="500" type="line"/>
      <point x="390" y="500" type="line"/>
      <point x="256" y="35" type="line"/>
      <point x="280" y="35" type="line"/>
      <point x="167" y="426" type="line" smooth="yes"/>
      <point x="155" y="467"/>
      <point x="169" y="483"/>
      <point x="209" y="483" type="curve"/>
      <point x="209" y="500" type="line" smooth="yes"/>
      <point x="0" y="500" type="line" smooth="yes"/>
      <point x="0" y="482" type="line"/>
      <point x="47" y="480"/>
      <point x="71" y="473"/>
      <point x="85" y="426" type="curve" smooth="yes"/>
      <point x="212" y="-12" type="line"/>
      <point x="285" y="-12" type="line"/>
      <point x="404" y="401" type="line"/>
      <point x="397" y="400" type="line"/>
      <point x="517" y="-12" type="line"/>
      <point x="590" y="-12" type="line"/>
      <point x="716.0" y="425.0" type="line" smooth="yes"/>
      <point x="728.0" y="466.0"/>
      <point x="761.0" y="476.0"/>
      <point x="800.0" y="482.0" type="curve"/>
      <point x="800.0" y="500.0" type="line" smooth="yes"/>
      <point x="636.0" y="500.0" type="line" smooth="yes"/>
      <point x="636.0" y="482.0" type="line"/>
      <point x="681.0" y="476.0"/>
      <point x="685.0" y="468.0"/>
      <point x="673.0" y="425.0" type="curve" smooth="yes"/>
      <point x="560" y="35" type="line"/>
    </contour>
  </outline>
</glyph>
<glyph name="x" format="1">
  <advance width="800"/>
  <unicode hex="0078"/>
  <outline>
    <contour>
      <point x="510" y="75" type="line" smooth="yes"/>
      <point x="550" y="32"/>
      <point x="527" y="17"/>
      <point x="478" y="17" type="curve"/>
      <point x="478" y="0" type="line" smooth="yes"/>
      <point x="724" y="0" type="line" smooth="yes"/>
      <point x="724" y="18" type="line"/>
      <point x="677" y="20"/>
      <point x="646" y="42"/>
      <point x="616" y="75" type="curve" smooth="yes"/>
      <point x="290" y="425" type="line" smooth="yes"/>
      <point x="250" y="468"/>
      <point x="273" y="483"/>
      <point x="322" y="483" type="curve"/>
      <point x="322" y="500" type="line" smooth="yes"/>
      <point x="76" y="500" type="line" smooth="yes"/>
      <point x="76" y="482" type="line"/>
      <point x="123" y="480"/>
      <point x="154" y="458"/>
      <point x="184" y="425" type="curve" smooth="yes"/>
    </contour>
    <contour>
      <point x="180" y="75" type="line" smooth="yes"/>
      <point x="147" y="44"/>
      <point x="115" y="24"/>
      <point x="76" y="18" type="curve"/>
      <point x="76" y="0" type="line" smooth="yes"/>
      <point x="270" y="0" type="line" smooth="yes"/>
      <point x="270" y="18" type="line"/>
      <point x="225" y="24"/>
      <point x="201" y="43"/>
      <point x="234" y="75" type="curve" smooth="yes"/>
      <point x="396" y="231" type="line" smooth="yes"/>
      <point x="365" y="252" type="line" smooth="yes"/>
    </contour>
    <contour>
      <point x="620" y="425" type="line" smooth="yes"/>
      <point x="653" y="456"/>
      <point x="685" y="476"/>
      <point x="724" y="482" type="curve"/>
      <point x="724" y="500" type="line" smooth="yes"/>
      <point x="530" y="500" type="line" smooth="yes"/>
      <point x="530" y="482" type="line"/>
      <point x="575" y="476"/>
      <point x="599" y="457"/>
      <point x="566" y="425" type="curve" smooth="yes"/>
      <point x="404" y="269" type="line" smooth="yes"/>
      <point x="435" y="248" type="line" smooth="yes"/>
    </contour>
  </outline>
</glyph>
<glyph name="z" format="1">
  <advance width="800"/>
  <unicode hex="007A"/>
  <outline>
    <contour>
      <point x="534" y="478" type="line"/>
      <point x="102" y="37" type="line" smooth="yes"/>
      <point x="102" y="0" type="line" smooth="yes"/>
      <point x="646" y="0" type="line" smooth="yes"/>
      <point x="698" y="184" type="line" smooth="yes"/>
      <point x="662" y="184" type="line"/>
      <point x="637" y="88"/>
      <point x="556" y="37"/>
      <point x="457" y="37" type="curve"/>
      <point x="183" y="37" type="line"/>
      <point x="195" y="16" type="line"/>
      <point x="633" y="463" type="line" smooth="yes"/>
      <point x="633" y="500" type="line"/>
      <point x="152" y="500" type="line" smooth="yes"/>
      <point x="114" y="356" type="line" smooth="yes"/>
      <point x="150" y="356" type="line"/>
      <point x="176" y="437"/>
      <point x="256" y="463"/>
      <point x="341" y="463" type="curve"/>
      <point x="543" y="463" type="line"/>
    </contour>
  </outline>
</glyph>
<glyph name="bar" format="1">
  <advance width="800"/>
  <unicode hex="007C"/>
  <outline>
    <contour>
      <point x="438" y="-192" type="line" smooth="yes"/>
      <point x="362" y="-192" type="line" smooth="yes"/>
      <point x="362" y="692" type="line" smooth="yes"/>
      <point x="438" y="692" type="line" smooth="yes"/>
    </contour>
  </outline>
</glyph>
<glyph name="asciitilde" format="1">
  <advance width="800"/>
  <unicode hex="007E"/>
  <outline>
    <contour>
      <point x="120" y="244" type="curve"/>
      <point x="135" y="219" type="line"/>
      <point x="192" y="263"/>
      <point x="237" y="278"/>
      <point x="276" y="278" type="curve" smooth="yes"/>
      <point x="359" y="278"/>
      <point x="411" y="209"/>
      <point x="489" y="209" type="curve" smooth="yes"/>
      <point x="538" y="209"/>
      <point x="597" y="236"/>
      <point x="680" y="323" type="curve"/>
      <point x="664" y="348" type="line"/>
      <point x="607" y="304"/>
      <point x="562" y="289"/>
      <point x="523" y="289" type="curve" smooth="yes"/>
      <point x="441" y="289"/>
      <point x="389" y="358"/>
      <point x="310" y="358" type="curve" smooth="yes"/>
      <point x="262" y="358"/>
      <point x="203" y="331"/>
    </contour>
  </outline>
</glyph>
<glyph name="periodcentered" format="1">
  <advance width="800"/>
  <unicode hex="00B7"/>
  <outline>
    <contour>
      <point x="475" y="266" type="curve" smooth="yes"/>
      <point x="475" y="225"/>
      <point x="441" y="191"/>
      <point x="400" y="191" type="curve" smooth="yes"/>
      <point x="359" y="191"/>
      <point x="325" y="225"/>
      <point x="325" y="266" type="curve" smooth="yes"/>
      <point x="325" y="307"/>
      <point x="359" y="341"/>
      <point x="400" y="341" type="curve" smooth="yes"/>
      <point x="441" y="341"/>
      <point x="475" y="307"/>
    </contour>
  </outline>
</glyph>
<glyph name="endash" format="1">
  <advance width="800"/>
  <unicode hex="2013"/>
  <outline>
    <contour>
      <point x="700" y="247" type="line" smooth="yes"/>
      <point x="100" y="247" type="line" smooth="yes"/>
      <point x="100" y="319" type="line" smooth="yes"/>
      <point x="700" y="319" type="line" smooth="yes"/>
    </contour>
  </outline>
</glyph>
<glyph name="quoteright" format="1">
  <advance width="800"/>
  <unicode hex="2019"/>
  <outline>
    <contour>
      <point x="406" y="692" type="curve" smooth="yes"/>
      <point x="370" y="692"/>
      <point x="340" y="664"/>
      <point x="340" y="631" type="curve" smooth="yes"/>
      <point x="340" y="597"/>
      <point x="367" y="571"/>
      <point x="401" y="571" type="curve" smooth="yes"/>
      <point x="411" y="571"/>
      <point x="415" y="572"/>
      <point x="422" y="576" type="curve"/>
      <point x="422" y="519"/>
      <point x="325" y="477"/>
      <point x="325" y="477" type="curve"/>
      <point x="340" y="452" type="line"/>
      <point x="421" y="487"/>
      <point x="475" y="528"/>
      <point x="475" y="624" type="curve" smooth="yes"/>
      <point x="475" y="660"/>
      <point x="444" y="692"/>
    </contour>
  </outline>
</glyph>
<glyph name="quotedblleft" format="1">
  <advance width="800"/>
  <unicode hex="201C"/>
  <outline>
    <contour>
      <point x="312" y="452" type="curve" smooth="yes"/>
      <point x="348" y="452"/>
      <point x="378" y="480"/>
      <point x="378" y="513" type="curve" smooth="yes"/>
      <point x="378" y="547"/>
      <point x="351" y="573"/>
      <point x="317" y="573" type="curve" smooth="yes"/>
      <point x="307" y="573"/>
      <point x="303" y="572"/>
      <point x="296" y="568" type="curve"/>
      <point x="296" y="625"/>
      <point x="393" y="667"/>
      <point x="393" y="667" type="curve"/>
      <point x="378" y="692" type="line"/>
      <point x="297" y="657"/>
      <point x="243" y="616"/>
      <point x="243" y="520" type="curve" smooth="yes"/>
      <point x="243" y="484"/>
      <point x="274" y="452"/>
    </contour>
    <contour>
      <point x="476" y="452" type="curve" smooth="yes"/>
      <point x="512" y="452"/>
      <point x="542" y="480"/>
      <point x="542" y="513" type="curve" smooth="yes"/>
      <point x="542" y="547"/>
      <point x="515" y="573"/>
      <point x="481" y="573" type="curve" smooth="yes"/>
      <point x="471" y="573"/>
      <point x="467" y="572"/>
      <point x="460" y="568" type="curve"/>
      <point x="460" y="625"/>
      <point x="557" y="667"/>
      <point x="557" y="667" type="curve"/>
      <point x="542" y="692" type="line"/>
      <point x="461" y="657"/>
      <point x="407" y="616"/>
      <point x="407" y="520" type="curve" smooth="yes"/>
      <point x="407" y="484"/>
      <point x="438" y="452"/>
    </contour>
  </outline>
</glyph>
<glyph name="quotedblright" format="1">
  <advance width="800"/>
  <unicode hex="201D"/>
  <outline>
    <contour>
      <point x="488" y="692" type="curve" smooth="yes"/>
      <point x="452" y="692"/>
      <point x="422" y="664"/>
      <point x="422" y="631" type="curve" smooth="yes"/>
      <point x="422" y="597"/>
      <point x="449" y="571"/>
      <point x="483" y="571" type="curve" smooth="yes"/>
      <point x="493" y="571"/>
      <point x="497" y="572"/>
      <point x="504" y="576" type="curve"/>
      <point x="504" y="519"/>
      <point x="407" y="477"/>
      <point x="407" y="477" type="curve"/>
      <point x="422" y="452" type="line"/>
      <point x="503" y="487"/>
      <point x="557" y="528"/>
      <point x="557" y="624" type="curve" smooth="yes"/>
      <point x="557" y="660"/>
      <point x="526" y="692"/>
    </contour>
    <contour>
      <point x="324" y="692" type="curve" smooth="yes"/>
      <point x="288" y="692"/>
      <point x="258" y="664"/>
      <point x="258" y="631" type="curve" smooth="yes"/>
      <point x="258" y="597"/>
      <point x="285" y="571"/>
      <point x="319" y="571" type="curve" smooth="yes"/>
      <point x="329" y="571"/>
      <point x="333" y="572"/>
      <point x="340" y="576" type="curve"/>
      <point x="340" y="519"/>
      <point x="243" y="477"/>
      <point x="243" y="477" type="curve"/>
      <point x="258" y="452" type="line"/>
      <point x="339" y="487"/>
      <point x="393" y="528"/>
      <point x="393" y="624" type="curve" smooth="yes"/>
      <point x="393" y="660"/>
      <point x="362" y="692"/>
    </contour>
  </outline>
</glyph>
<glyph name="numero" format="1">
  <advance width="800"/>
  <unicode hex="2116"/>
  <outline>
    <contour>
      <point x="175" y="0" type="line" smooth="yes"/>
      <point x="120" y="0" type="line" smooth="yes"/>
      <point x="120" y="660" type="line" smooth="yes"/>
      <point x="175" y="660" type="line" smooth="yes"/>
    </contour>
    <contour>
      <point x="51" y="18" type="line"/>
      <point x="94" y="26"/>
      <point x="120" y="47"/>
      <point x="120" y="76" type="curve"/>
      <point x="120" y="0" type="line" smooth="yes"/>
      <point x="51" y="0" type="line" smooth="yes"/>
    </contour>
    <contour>
      <point x="51" y="642" type="curve"/>
      <point x="51" y="660" type="line" smooth="yes"/>
      <point x="120" y="660" type="line" smooth="yes"/>
      <point x="120" y="584" type="line"/>
      <point x="120" y="613"/>
      <point x="94" y="634"/>
    </contour>
    <contour>
      <point x="244" y="18" type="line"/>
      <point x="201" y="26"/>
      <point x="175" y="47"/>
      <point x="175" y="76" type="curve"/>
      <point x="175" y="0" type="line" smooth="yes"/>
      <point x="244" y="0" type="line" smooth="yes"/>
    </contour>
    <contour>
      <point x="617" y="0" type="line" smooth="yes"/>
      <point x="562" y="0" type="line" smooth="yes"/>
      <point x="562" y="360" type="line" smooth="yes"/>
      <point x="617" y="360" type="line" smooth="yes"/>
    </contour>
    <contour>
      <point x="493" y="342" type="line"/>
      <point x="536" y="334"/>
      <point x="562" y="313"/>
      <point x="562" y="284" type="curve"/>
      <point x="562" y="360" type="line" smooth="yes"/>
      <point x="493" y="360" type="line" smooth="yes"/>
    </contour>
    <contour>
      <point x="686" y="342" type="line"/>
      <point x="643" y="334"/>
      <point x="617" y="313"/>
      <point x="617" y="284" type="curve"/>
      <point x="617" y="360" type="line" smooth="yes"/>
      <point x="686" y="360" type="line" smooth="yes"/>
    </contour>
    <contour>
      <point x="527" y="0" type="line"/>
      <point x="105" y="660" type="line"/>
      <point x="212" y="660" type="line"/>
      <point x="600" y="45" type="line" smooth="yes"/>
      <point x="600" y="0" type="line" smooth="yes"/>
    </contour>
    <contour>
      <point x="682" y="527" type="curve" smooth="yes"/>
      <point x="682" y="476"/>
      <point x="646" y="425"/>
      <point x="601" y="425" type="curve" smooth="yes"/>
      <point x="537" y="425"/>
      <point x="496" y="472"/>
      <point x="496" y="543" type="curve" smooth="yes"/>
      <point x="496" y="594"/>
      <point x="532" y="645"/>
      <point x="577" y="645" type="curve" smooth="yes"/>
      <point x="641" y="645"/>
      <point x="682" y="598"/>
    </contour>
    <contour>
      <point x="429" y="526" type="curve" smooth="yes"/>
      <point x="429" y="456"/>
      <point x="500" y="398"/>
      <point x="570" y="398" type="curve" smooth="yes"/>
      <point x="665" y="398"/>
      <point x="749" y="449"/>
      <point x="749" y="544" type="curve" smooth="yes"/>
      <point x="749" y="614"/>
      <point x="678" y="672"/>
      <point x="608" y="672" type="curve" smooth="yes"/>
      <point x="513" y="672"/>
      <point x="429" y="621"/>
    </contour>
  </outline>
</glyph>
<glyph name="notequal" format="1">
  <advance width="800"/>
  <unicode hex="2260"/>
  <outline>
    <contour>
      <point x="650" y="347" type="line" smooth="yes"/>
      <point x="150" y="347" type="line" smooth="yes"/>
      <point x="150" y="419" type="line" smooth="yes"/>
      <point x="650" y="419" type="line" smooth="yes"/>
    </contour>
    <contour>
      <point x="650" y="147" type="line" smooth="yes"/>
      <point x="150" y="147" type="line" smooth="yes"/>
      <point x="150" y="219" type="line" smooth="yes"/>
      <point x="650" y="219" type="line" smooth="yes"/>
    </contour>
    <contour>
      <point x="269" y="46" type="line" smooth="yes"/>
      <point x="185" y="46" type="line" smooth="yes"/>
      <point x="524" y="521" type="line" smooth="yes"/>
      <point x="615" y="521" type="line" smooth="yes"/>
    </contour>
  </outline>
</glyph>
<glyph name=".notdef" format="1">
  <advance width="800"/>
  <outline>
    <contour>
      <point x="207" y="-108" type="line"/>
      <point x="593" y="-108" type="line"/>
      <point x="593" y="606" type="line"/>
      <point x="207" y="606" type="line"/>
    </contour>
    <contour>
      <point x="262" y="570" type="line"/>
      <point x="538" y="570" type="line"/>
      <point x="400" y="292" type="line"/>
    </contour>
    <contour>
      <point x="554" y="517" type="line"/>
      <point x="554" y="-19" type="line"/>
      <point x="422" y="249" type="line"/>
    </contour>
    <contour>
      <point x="246" y="-19" type="line"/>
      <point x="246" y="517" type="line"/>
      <point x="379" y="249" type="line"/>
    </contour>
    <contour>
      <point x="400" y="206" type="line"/>
      <point x="538" y="-72" type="line"/>
      <point x="262" y="-72" type="line"/>
    </contour>
  </outline>
</glyph>
<glyph name="four2" format="1">
  <advance width="800"/>
  <outline>
    <contour>
      <point x="175" y="220" type="move"/>
      <point x="301" y="305"/>
      <point x="461" y="494"/>
      <point x="504" y="582" type="curve" smooth="yes"/>
      <point x="524" y="623"/>
      <point x="512" y="666"/>
      <point x="473" y="682" type="curve" smooth="yes"/>
      <point x="444" y="692"/>
      <point x="422" y="678"/>
      <point x="412" y="654" type="curve" smooth="yes"/>
      <point x="394" y="608"/>
      <point x="433" y="582"/>
      <point x="418" y="553" type="curve" smooth="yes"/>
      <point x="362" y="442"/>
      <point x="241" y="303"/>
      <point x="126" y="231" type="curve"/>
    </contour>
    <contour>
      <point x="415" y="426" type="line"/>
      <point x="416" y="0" type="line" smooth="yes"/>
      <point x="504" y="0" type="line" smooth="yes"/>
      <point x="504" y="532" type="line"/>
    </contour>
    <contour>
      <point x="674" y="231" type="line"/>
      <point x="630" y="226"/>
      <point x="517" y="201"/>
      <point x="444" y="201" type="curve" smooth="yes"/>
      <point x="356" y="201" type="line" smooth="yes"/>
      <point x="283" y="201"/>
      <point x="170" y="226"/>
      <point x="126" y="231" type="curve"/>
      <point x="126" y="153" type="line" smooth="yes"/>
      <point x="674" y="153" type="line" smooth="yes"/>
    </contour>
    <contour>
      <point x="347" y="18" type="line"/>
      <point x="390" y="26"/>
      <point x="416" y="47"/>
      <point x="416" y="76" type="curve"/>
      <point x="416" y="0" type="line" smooth="yes"/>
      <point x="347" y="0" type="line" smooth="yes"/>
    </contour>
    <contour>
      <point x="573" y="18" type="line"/>
      <point x="530" y="26"/>
      <point x="504" y="47"/>
      <point x="504" y="76" type="curve"/>
      <point x="504" y="0" type="line" smooth="yes"/>
      <point x="573" y="0" type="line" smooth="yes"/>
    </contour>
  </outline>
</glyph>
<glyph name="i.ver.001" format="1">
  <advance width="800"/>
  <note>
    Version created Mon Oct 30 23:45:18 2017
  </note>
  <outline>
    <contour>
      <point x="464" y="688" type="curve" smooth="yes"/>
      <point x="464" y="655"/>
      <point x="437" y="628"/>
      <point x="404" y="628" type="curve" smooth="yes"/>
      <point x="371" y="628"/>
      <point x="344" y="655"/>
      <point x="344" y="688" type="curve" smooth="yes"/>
      <point x="344" y="721"/>
      <point x="371" y="748"/>
      <point x="404" y="748" type="curve" smooth="yes"/>
      <point x="437" y="748"/>
      <point x="464" y="721"/>
    </contour>
    <contour>
      <point x="334" y="476" type="curve" smooth="yes"/>
      <point x="348" y="476"/>
      <point x="358" y="472"/>
      <point x="357" y="456" type="curve" smooth="yes"/>
      <point x="338" y="99" type="line" smooth="yes"/>
      <point x="334" y="25"/>
      <point x="378" y="-12"/>
      <point x="455" y="-12" type="curve" smooth="yes"/>
      <point x="563" y="-12"/>
      <point x="633" y="51"/>
      <point x="666" y="85" type="curve"/>
      <point x="651" y="115" type="line"/>
      <point x="621" y="85"/>
      <point x="542" y="37"/>
      <point x="503" y="36" type="curve" smooth="yes"/>
      <point x="464" y="35"/>
      <point x="424" y="58"/>
      <point x="426" y="99" type="curve" smooth="yes"/>
      <point x="445" y="472" type="line" smooth="yes"/>
      <point x="446" y="493"/>
      <point x="426" y="512"/>
      <point x="405" y="512" type="curve" smooth="yes"/>
      <point x="376" y="512" type="line" smooth="yes"/>
      <point x="285" y="512"/>
      <point x="115" y="434"/>
      <point x="115" y="377" type="curve" smooth="yes"/>
      <point x="115" y="353"/>
      <point x="130" y="330"/>
      <point x="161" y="330" type="curve" smooth="yes"/>
      <point x="195" y="330"/>
      <point x="244" y="350"/>
      <point x="244" y="371" type="curve" smooth="yes"/>
      <point x="244" y="404"/>
      <point x="209" y="409"/>
      <point x="234" y="434" type="curve" smooth="yes"/>
      <point x="259" y="459"/>
      <point x="307" y="476"/>
    </contour>
  </outline>
</glyph>
<glyph name="i.ver.002" format="1">
  <advance width="800"/>
  <note>
    Version created Mon Oct 30 23:56:22 2017
  </note>
  <outline>
    <contour>
      <point x="464" y="688" type="curve" smooth="yes"/>
      <point x="464" y="655"/>
      <point x="437" y="628"/>
      <point x="404" y="628" type="curve" smooth="yes"/>
      <point x="371" y="628"/>
      <point x="344" y="655"/>
      <point x="344" y="688" type="curve" smooth="yes"/>
      <point x="344" y="721"/>
      <point x="371" y="748"/>
      <point x="404" y="748" type="curve" smooth="yes"/>
      <point x="437" y="748"/>
      <point x="464" y="721"/>
    </contour>
    <contour>
      <point x="445" y="103" type="curve" smooth="yes"/>
      <point x="445" y="472" type="line" smooth="yes"/>
      <point x="445" y="493"/>
      <point x="426" y="512"/>
      <point x="405" y="512" type="curve" smooth="yes"/>
      <point x="376" y="512" type="line" smooth="yes"/>
      <point x="262" y="512"/>
      <point x="115" y="440"/>
      <point x="115" y="377" type="curve" smooth="yes"/>
      <point x="115" y="349"/>
      <point x="132" y="328"/>
      <point x="162" y="328" type="curve" smooth="yes"/>
      <point x="184" y="328"/>
      <point x="212" y="347"/>
      <point x="212" y="371" type="curve" smooth="yes"/>
      <point x="212" y="439"/>
      <point x="256" y="476"/>
      <point x="334" y="476" type="curve" smooth="yes"/>
      <point x="348" y="476"/>
      <point x="357" y="472"/>
      <point x="357" y="456" type="curve" smooth="yes"/>
      <point x="357" y="103" type="line" smooth="yes"/>
      <point x="357" y="74"/>
      <point x="331" y="53"/>
      <point x="288" y="45" type="curve"/>
      <point x="132" y="45" type="line"/>
      <point x="132" y="0" type="line"/>
      <point x="670" y="0" type="line"/>
      <point x="670" y="45" type="line"/>
      <point x="514" y="45" type="line"/>
      <point x="471" y="53"/>
      <point x="445" y="74"/>
    </contour>
  </outline>
</glyph>
<glyph name="l.ver.001" format="1">
  <advance width="800"/>
  <note>
    Version created Tue Oct 31 01:35:17 2017
  </note>
  <outline>
    <contour>
      <point x="337" y="714" type="curve" smooth="yes"/>
      <point x="351" y="714"/>
      <point x="361" y="710"/>
      <point x="360" y="694" type="curve" smooth="yes"/>
      <point x="338" y="99" type="line" smooth="yes"/>
      <point x="335" y="25"/>
      <point x="378" y="-12"/>
      <point x="455" y="-12" type="curve" smooth="yes"/>
      <point x="563" y="-12"/>
      <point x="633" y="51"/>
      <point x="666" y="85" type="curve"/>
      <point x="651" y="115" type="line"/>
      <point x="621" y="85"/>
      <point x="542" y="37"/>
      <point x="503" y="36" type="curve" smooth="yes"/>
      <point x="464" y="35"/>
      <point x="425" y="58"/>
      <point x="426" y="99" type="curve" smooth="yes"/>
      <point x="448" y="710" type="line" smooth="yes"/>
      <point x="449" y="731"/>
      <point x="429" y="750"/>
      <point x="408" y="750" type="curve" smooth="yes"/>
      <point x="379" y="750" type="line" smooth="yes"/>
      <point x="288" y="750"/>
      <point x="118" y="672"/>
      <point x="118" y="615" type="curve" smooth="yes"/>
      <point x="118" y="591"/>
      <point x="133" y="568"/>
      <point x="164" y="568" type="curve" smooth="yes"/>
      <point x="198" y="568"/>
      <point x="247" y="588"/>
      <point x="247" y="609" type="curve" smooth="yes"/>
      <point x="247" y="642"/>
      <point x="212" y="647"/>
      <point x="237" y="672" type="curve" smooth="yes"/>
      <point x="262" y="697"/>
      <point x="310" y="714"/>
    </contour>
  </outline>
</glyph>
<glyph name="l.ver.002" format="1">
  <advance width="800"/>
  <note>
    Version created Tue Oct 31 01:35:44 2017
  </note>
  <outline>
    <contour>
      <point x="440" y="103" type="curve" smooth="yes"/>
      <point x="440" y="710" type="line" smooth="yes"/>
      <point x="440" y="731"/>
      <point x="421" y="750"/>
      <point x="400" y="750" type="curve" smooth="yes"/>
      <point x="371" y="750" type="line" smooth="yes"/>
      <point x="257" y="750"/>
      <point x="110" y="678"/>
      <point x="110" y="615" type="curve" smooth="yes"/>
      <point x="110" y="587"/>
      <point x="127" y="566"/>
      <point x="157" y="566" type="curve" smooth="yes"/>
      <point x="179" y="566"/>
      <point x="207" y="585"/>
      <point x="207" y="609" type="curve" smooth="yes"/>
      <point x="207" y="677"/>
      <point x="251" y="714"/>
      <point x="329" y="714" type="curve" smooth="yes"/>
      <point x="343" y="714"/>
      <point x="352" y="710"/>
      <point x="352" y="694" type="curve" smooth="yes"/>
      <point x="352" y="103" type="line" smooth="yes"/>
      <point x="352" y="29"/>
      <point x="393" y="-12"/>
      <point x="474" y="-12" type="curve" smooth="yes"/>
      <point x="578" y="-12"/>
      <point x="643" y="64"/>
      <point x="676" y="98" type="curve"/>
      <point x="661" y="128" type="line"/>
      <point x="624" y="91"/>
      <point x="559" y="45"/>
      <point x="515" y="44" type="curve" smooth="yes"/>
      <point x="470" y="43"/>
      <point x="440" y="67"/>
    </contour>
  </outline>
</glyph>
